<svg width="32" height="32" viewBox="0 0 32 32" fill="none" xmlns="http://www.w3.org/2000/svg">
<g clip-path="url(#clip0_9_779)">
<path d="M19.69 6.37001V12.04C19.69 12.35 19.69 12.35 19.99 12.35H31.35C31.3886 12.3427 31.4283 12.344 31.4663 12.3536C31.5044 12.3632 31.5399 12.381 31.5703 12.4058C31.6008 12.4305 31.6254 12.4616 31.6426 12.4969C31.6598 12.5322 31.6692 12.5708 31.67 12.61C32.0391 14.3175 32.1302 16.0734 31.94 17.81C31.88 18.35 31.78 18.89 31.67 19.42C31.67 19.6 31.56 19.66 31.36 19.66H20.07C19.69 19.66 19.69 19.66 19.69 20.03C19.69 23.78 19.69 27.53 19.69 31.28C19.69 31.52 19.6099 31.62 19.3899 31.66C18.4282 31.8574 17.4513 31.9712 16.47 32C15.2109 32.0376 13.9518 31.9234 12.72 31.66C12.39 31.59 12.3899 31.59 12.3899 31.26V20.01C12.3899 19.66 12.3899 19.66 12.0299 19.66H0.689978C0.439978 19.66 0.379993 19.56 0.329993 19.35C0.0624309 18.0344 -0.0482969 16.6917 3.68115e-05 15.35C0.0454528 14.4218 0.16583 13.4988 0.360022 12.59C0.360022 12.44 0.460032 12.39 0.620032 12.39H11.98C12.34 12.39 12.34 12.39 12.34 12.03C12.34 8.24331 12.34 4.45666 12.34 0.669996C12.34 0.499996 12.41 0.439976 12.56 0.399976C14.1635 0.063442 15.8079 -0.0342583 17.44 0.109998C18.07 0.169998 18.7 0.270018 19.33 0.380018C19.55 0.380018 19.6499 0.499972 19.6499 0.769972C19.6899 2.60997 19.69 4.49001 19.69 6.37001Z" fill="#C02F35"/>
<path d="M21.6899 27.96V25.22C21.6899 25.15 21.6899 25.06 21.6899 25.03C21.6899 25 21.8199 25.03 21.8799 25.11L25.1699 27.42L26.1 28.06C26.31 28.21 26.32 28.23 26.1 28.39C24.8553 29.4032 23.4667 30.2255 21.98 30.83C21.63 30.97 21.6299 30.97 21.6299 30.59V27.96H21.6899Z" fill="#0B2B7A"/>
<path d="M10.34 4.03995V6.77994C10.34 6.83994 10.34 6.91999 10.34 6.94999C10.34 6.97999 10.2199 6.94994 10.1699 6.89994L6.07997 4.02994C5.69997 3.75994 5.70997 3.75994 6.07997 3.45994C7.29496 2.49851 8.64213 1.7172 10.08 1.13999C10.35 1.02999 10.36 1.03998 10.36 1.31998C10.36 2.22998 10.36 3.13995 10.36 4.03995H10.34Z" fill="#0B2B7A"/>
<path d="M21.6899 4.00003V1.28C21.6899 1.06 21.6899 1.04002 21.9299 1.12002C23.4397 1.72568 24.8517 2.55129 26.12 3.57004C26.28 3.70004 26.28 3.77004 26.12 3.89004L21.9299 6.82004C21.9299 6.82004 21.82 6.92999 21.75 6.89999C21.68 6.86999 21.75 6.77004 21.75 6.70004V4.00003H21.6899Z" fill="#0B2B7A"/>
<path d="M10.3499 27.99V30.71C10.3499 30.92 10.2899 30.95 10.1099 30.88C8.59198 30.2698 7.17306 29.4374 5.89986 28.41C5.78986 28.33 5.69986 28.25 5.89986 28.12L10.0499 25.22C10.1299 25.17 10.2199 25.04 10.3199 25.09C10.4199 25.14 10.3199 25.29 10.3199 25.39V27.99H10.3499Z" fill="#0B2B7A"/>
<path d="M21.6899 9.19C21.6899 8.92 21.6899 8.63999 21.6899 8.35999C21.6857 8.3 21.6985 8.24001 21.7268 8.18695C21.7551 8.13389 21.7978 8.08992 21.85 8.06L26.85 4.54999C26.8743 4.51882 26.9054 4.4936 26.9409 4.47626C26.9764 4.45892 27.0154 4.44989 27.0549 4.44989C27.0945 4.44989 27.1334 4.45892 27.1689 4.47626C27.2045 4.4936 27.2356 4.51882 27.2599 4.54999C27.5499 4.86999 27.8599 5.17999 28.1499 5.54999C28.2599 5.67999 28.22 5.74997 28.1 5.83997L25.4199 7.70996L21.9399 10.15C21.8799 10.15 21.82 10.27 21.74 10.24C21.66 10.21 21.7399 10.09 21.6799 10.01L21.6899 9.19Z" fill="#C03339"/>
<path d="M10.35 22.79V23.6C10.356 23.6693 10.3422 23.739 10.3103 23.8009C10.2785 23.8628 10.2299 23.9145 10.17 23.95L5.16996 27.44C4.98996 27.57 4.88004 27.55 4.75004 27.44C4.47004 27.12 4.17993 26.81 3.88993 26.51C3.74993 26.37 3.78993 26.29 3.88993 26.19L8.03996 23.29L10.04 21.9C10.11 21.9 10.1799 21.76 10.2699 21.82C10.3599 21.88 10.2699 21.97 10.2699 22.05C10.2699 22.31 10.2699 22.57 10.2699 22.83L10.35 22.79Z" fill="#C03339"/>
<path d="M8.73999 10.35H7.42994C7.30673 10.3471 7.18768 10.3051 7.08997 10.23L2.96997 7.32995C2.66997 7.11995 2.66989 7.11996 2.87989 6.83996L3.59998 5.83996C3.67998 5.71996 3.75991 5.68996 3.89991 5.83996L10.0399 10.14C10.0399 10.14 10.1899 10.21 10.1599 10.29C10.1299 10.37 10.04 10.29 9.96997 10.29H8.69995L8.73999 10.35Z" fill="#C03339"/>
<path d="M23.2999 21.64C23.6099 21.64 23.9299 21.64 24.2399 21.64C24.5555 21.613 24.8697 21.7058 25.1199 21.9C26.4399 22.9 27.7699 23.78 29.1199 24.71C29.2999 24.83 29.2999 24.93 29.1799 25.09C28.9199 25.42 28.6799 25.75 28.4299 26.09C28.3199 26.24 28.2299 26.26 28.0699 26.09C26.4799 24.96 24.8698 23.85 23.2698 22.72L21.9899 21.83C21.9199 21.83 21.8099 21.74 21.8399 21.65C21.8699 21.56 21.9699 21.65 22.0399 21.65L23.2999 21.64Z" fill="#C03339"/>
<path d="M28.69 10.3499H26.69C26.63 10.3499 26.5399 10.3499 26.5099 10.3499C26.4799 10.3499 26.58 10.2599 26.62 10.2199L29.69 8.05997C29.81 7.97997 29.87 7.99999 29.95 8.13999C30.3244 8.78528 30.6584 9.45324 30.95 10.14C31.03 10.34 30.9499 10.37 30.7699 10.37L28.69 10.3499Z" fill="#0E2D7B"/>
<path d="M3.29993 21.65H5.34998C5.40998 21.65 5.48989 21.65 5.50989 21.7C5.52989 21.75 5.50992 21.79 5.40992 21.82C4.40992 22.53 3.40992 23.23 2.40992 23.95C2.26992 24.05 2.2 24.03 2.12 23.89C1.74667 23.2441 1.41272 22.5762 1.12 21.89C1.05 21.73 1.11991 21.65 1.27991 21.65H3.29993Z" fill="#0E2D7B"/>
<path d="M5.46997 10.32C5.33828 10.3497 5.20163 10.3497 5.06994 10.32H1.26989C1.06989 10.32 1.04998 10.26 1.10998 10.09C1.39627 9.40079 1.73041 8.73249 2.10998 8.08996C2.17998 7.95996 2.23998 7.94996 2.35998 8.02996L5.42993 10.17C5.46193 10.213 5.47628 10.2667 5.46997 10.32Z" fill="#0E2D7B"/>
<path d="M26.5199 21.69C26.5906 21.6622 26.6693 21.6622 26.74 21.69H30.74C30.98 21.69 31.0099 21.69 30.9299 21.93C30.6579 22.5893 30.3507 23.2335 30.0099 23.86C29.9199 24.04 29.8399 24.06 29.6699 23.94L26.7599 21.94L26.5199 21.69Z" fill="#0E2D7B"/>
</g>
<defs>
<clipPath id="clip0_9_779">
<rect width="32" height="32" fill="white"/>
</clipPath>
</defs>
</svg>
