<svg width="40" height="40" viewBox="0 0 40 40" fill="none" xmlns="http://www.w3.org/2000/svg">
<g clip-path="url(#clip0_34_1877)">
<path d="M10 26.475C9.52598 27.7542 9.43054 29.1429 9.72507 30.4749C10.118 32.8238 11.2375 34.9903 12.9259 36.6698C14.6143 38.3492 16.7867 39.4571 19.1376 39.8375C20.3493 39.9725 21.5687 40.0268 22.7877 40H23.5001C24.5148 40.0183 25.5297 39.9682 26.5377 39.8499C28.7547 39.478 30.7892 38.391 32.3307 36.7547C33.8722 35.1184 34.836 33.0227 35.0751 30.7874C35.1864 28.593 35.1864 26.3944 35.0751 24.2C35.064 23.7923 34.9695 23.3912 34.7976 23.0215C34.6256 22.6517 34.3796 22.3211 34.075 22.05C33.7421 21.739 33.3474 21.5015 32.9168 21.3529C32.4861 21.2043 32.0289 21.148 31.575 21.1875C31.3395 21.2024 31.1055 21.2358 30.8751 21.2875L30.5251 21.35H30.2877L30.1876 21.125C29.2751 19.0625 28.2502 18.55 25.7752 18.9375H25.5251L25.4251 18.7C25.2932 18.2674 25.076 17.8656 24.7863 17.5182C24.4965 17.1709 24.1401 16.8852 23.7381 16.6778C23.3362 16.4704 22.8968 16.3457 22.4459 16.3108C21.9949 16.276 21.5416 16.3318 21.1126 16.475L20.7376 16.5625V15.0874C20.7376 14.2749 20.7376 13.4749 20.7376 12.6624C20.7412 12.0776 20.5831 11.5033 20.2809 11.0026C19.9788 10.5019 19.5442 10.0943 19.0251 9.82496C18.5532 9.55495 18.0189 9.41278 17.4752 9.41248C16.9048 9.41542 16.3449 9.56613 15.8501 9.84995C15.3644 10.1274 14.9599 10.5274 14.677 11.0099C14.3941 11.4924 14.2425 12.0406 14.2376 12.6C14.2376 14.2625 14.2376 15.925 14.2376 17.6V22.925L13.9251 23.0375L13.7377 23.1C12.891 23.3242 12.1099 23.7475 11.4598 24.3346C10.8097 24.9216 10.3093 25.6554 10 26.475ZM13.9376 24.9875L14.3376 24.875V27.8999C14.3218 28.0235 14.3321 28.149 14.368 28.2683C14.4039 28.3876 14.4646 28.498 14.5459 28.5923C14.6273 28.6866 14.7276 28.7628 14.8403 28.8158C14.953 28.8688 15.0755 28.8975 15.2001 28.9C15.3123 28.9084 15.4251 28.8927 15.5307 28.8539C15.6364 28.8151 15.7325 28.7541 15.8126 28.675C16.0021 28.4626 16.101 28.1843 16.0877 27.8999V12.8999C16.0473 12.5176 16.1539 12.1341 16.3861 11.8276C16.6183 11.5211 16.9586 11.3146 17.3377 11.25C17.5531 11.1962 17.778 11.193 17.9949 11.2407C18.2118 11.2884 18.4147 11.3857 18.5877 11.525C18.7648 11.6619 18.9101 11.8356 19.0137 12.0342C19.1173 12.2327 19.1766 12.4513 19.1877 12.675C19.1877 12.85 19.1877 13.0124 19.1877 13.1749V25.8375C19.1796 25.9943 19.2069 26.151 19.2675 26.296C19.328 26.4409 19.4203 26.5704 19.5375 26.675C19.643 26.7504 19.7637 26.8017 19.8911 26.8255C20.0185 26.8492 20.1496 26.8448 20.2751 26.8125C20.4785 26.7552 20.6556 26.6293 20.7764 26.456C20.8972 26.2828 20.9541 26.073 20.9375 25.8625V19.675C20.9235 19.3658 21.0065 19.0599 21.1745 18.8C21.3425 18.5401 21.5873 18.3391 21.875 18.225C22.1307 18.1119 22.4139 18.0765 22.6895 18.1231C22.9651 18.1698 23.221 18.2965 23.4252 18.4874C23.6009 18.643 23.7394 18.8362 23.8303 19.0526C23.9212 19.269 23.9621 19.503 23.9501 19.7374V25.8875C23.9498 26.0305 23.9811 26.1718 24.0416 26.3014C24.1021 26.4311 24.1903 26.5458 24.3001 26.6375C24.4335 26.738 24.5929 26.7982 24.7594 26.811C24.9259 26.8238 25.0925 26.7887 25.2397 26.7099C25.387 26.631 25.5085 26.5117 25.5901 26.3659C25.6717 26.2202 25.7099 26.0542 25.7001 25.8875V22.1375C25.6921 21.908 25.7299 21.6792 25.8115 21.4646C25.8931 21.2499 26.0167 21.0537 26.1751 20.8875C26.466 20.6232 26.8446 20.4762 27.2376 20.4749C27.4451 20.4777 27.6497 20.523 27.8389 20.6083C28.0281 20.6935 28.1978 20.8168 28.3373 20.9704C28.4768 21.124 28.5832 21.3046 28.6499 21.5011C28.7166 21.6975 28.7423 21.9057 28.7252 22.1125V25.8C28.7186 25.9437 28.7405 26.0874 28.7899 26.2225C28.8392 26.3577 28.915 26.4818 29.0126 26.5875C29.0926 26.6631 29.1868 26.722 29.2899 26.7606C29.3929 26.7993 29.5027 26.8169 29.6126 26.8125C29.7371 26.81 29.8597 26.7813 29.9724 26.7283C30.0851 26.6753 30.1856 26.5991 30.2669 26.5048C30.3483 26.4105 30.4088 26.3001 30.4447 26.1808C30.4806 26.0615 30.4909 25.936 30.475 25.8125V24.375C30.4712 23.9864 30.6171 23.6112 30.8825 23.3273C31.1478 23.0433 31.5121 22.8724 31.9001 22.85C32.3261 22.8381 32.7397 22.9953 33.0501 23.2874C33.1833 23.4127 33.2896 23.5638 33.3626 23.7314C33.4357 23.899 33.4739 24.0797 33.4751 24.2625C33.4751 24.85 33.4751 25.4374 33.4751 26.0249C33.5312 27.7231 33.4685 29.4231 33.2875 31.1125C32.9846 33.0301 32.025 34.783 30.5725 36.0712C29.1201 37.3595 27.2651 38.1031 25.325 38.1749C24.4875 38.1749 23.7126 38.1749 22.9876 38.1749C21.8876 38.1749 20.8876 38.175 19.9251 38.0625C17.87 37.8466 15.9411 36.9674 14.4301 35.5579C12.9191 34.1483 11.9082 32.2851 11.5502 30.25C11.4135 29.4237 11.3882 28.5829 11.4751 27.75C11.6044 27.1171 11.9011 26.5304 12.3342 26.0512C12.7673 25.5719 13.321 25.2175 13.9376 25.025V24.9875Z" fill="white"/>
<path d="M25.7249 9.08749C26.5999 8.60416 27.4624 8.10414 28.3124 7.58748C28.4513 7.5162 28.5685 7.40906 28.652 7.27719C28.7356 7.14531 28.7823 6.99352 28.7874 6.83751C28.7935 6.68362 28.7571 6.53101 28.6821 6.39649C28.6071 6.26197 28.4965 6.15072 28.3624 6.07499C28.2324 5.99048 28.08 5.94693 27.925 5.94998C27.7682 5.95169 27.6141 5.99022 27.475 6.06247C26.65 6.52497 25.8374 6.99999 24.8749 7.56249C24.7663 7.61358 24.6695 7.68643 24.5903 7.77653C24.5111 7.86663 24.4512 7.97205 24.4145 8.08625C24.3778 8.20044 24.365 8.32099 24.3768 8.44037C24.3886 8.55974 24.4249 8.6754 24.4833 8.78018C24.5417 8.88496 24.621 8.97663 24.7163 9.04946C24.8116 9.12229 24.9209 9.17471 25.0374 9.20353C25.1538 9.23235 25.2749 9.23693 25.3932 9.21696C25.5115 9.197 25.6244 9.15293 25.7249 9.08749Z" fill="white"/>
<path d="M11.3251 1.6625C11.1457 1.73147 10.993 1.85604 10.8896 2.01799C10.7861 2.17993 10.7373 2.37075 10.7501 2.5625C10.7373 2.64114 10.7373 2.72135 10.7501 2.8C11.3001 3.775 11.8001 4.6625 12.3376 5.5375C12.4581 5.72156 12.6452 5.85175 12.8596 5.9007C13.0741 5.94965 13.2991 5.91355 13.4875 5.79999C13.679 5.69642 13.8227 5.52236 13.8881 5.31469C13.9534 5.10701 13.9353 4.88207 13.8376 4.68751C13.3751 3.82501 12.85 2.92498 12.2375 1.92498C12.1334 1.78952 11.9887 1.69096 11.8245 1.64373C11.6603 1.59649 11.4852 1.60307 11.3251 1.6625Z" fill="white"/>
<path d="M22.825 2.05006C22.325 2.88756 21.8376 3.72506 21.3501 4.55006C21.2848 4.64924 21.2398 4.76037 21.2176 4.87702C21.1955 4.99366 21.1968 5.1135 21.2212 5.22968C21.2456 5.34587 21.2927 5.45608 21.3599 5.55397C21.427 5.65186 21.5129 5.7355 21.6125 5.80006C21.7079 5.86111 21.8151 5.90155 21.927 5.91877C22.039 5.93599 22.1532 5.92963 22.2626 5.90008C22.5226 5.82379 22.7424 5.64881 22.8751 5.41256C23.3501 4.58756 23.8251 3.77506 24.2876 2.91256C24.3492 2.78821 24.3994 2.65851 24.4376 2.52506C24.4322 2.47521 24.4322 2.42493 24.4376 2.37507C24.4167 2.1918 24.3429 2.01855 24.2253 1.87649C24.1077 1.73443 23.9512 1.62969 23.775 1.57505C23.6838 1.56206 23.5913 1.56206 23.5001 1.57505C23.3554 1.58671 23.2165 1.63693 23.0978 1.72047C22.9791 1.804 22.8848 1.91781 22.825 2.05006Z" fill="white"/>
<path d="M18.4748 0.962503C18.4851 0.840852 18.4703 0.718375 18.4311 0.602739C18.392 0.487103 18.3293 0.380806 18.2471 0.290468C18.165 0.20013 18.0652 0.127699 17.9539 0.0777222C17.8425 0.0277451 17.7219 0.00129907 17.5998 1.68084e-05C17.4833 -0.00071021 17.3679 0.0221541 17.2605 0.0672699C17.1531 0.112386 17.0559 0.178807 16.9748 0.262506C16.8074 0.446705 16.7177 0.688652 16.7248 0.937517C16.7248 1.89585 16.7248 2.85835 16.7248 3.82501C16.7213 3.95418 16.7439 4.08271 16.7911 4.20297C16.8384 4.32324 16.9094 4.43276 16.9999 4.52501C17.0779 4.60409 17.1715 4.66604 17.2748 4.70693C17.3781 4.74782 17.4888 4.76676 17.5998 4.76251C17.7186 4.76095 17.8358 4.73557 17.9445 4.6879C18.0533 4.64023 18.1513 4.57121 18.2329 4.48496C18.3145 4.39871 18.3778 4.29698 18.4194 4.18577C18.461 4.07456 18.4798 3.95611 18.4748 3.83749V0.962503Z" fill="white"/>
<path d="M10.2624 7.52496C9.44991 7.03746 8.62491 6.56245 7.76241 6.09995C7.63952 6.03505 7.5094 5.98472 7.37484 5.94995H7.22485C7.03765 5.96772 6.85983 6.03996 6.71322 6.1577C6.5666 6.27544 6.45772 6.43351 6.39996 6.61245C6.34434 6.80118 6.35483 7.00326 6.42986 7.18515C6.50489 7.36704 6.63989 7.51784 6.8124 7.61247C7.6499 8.11247 8.4999 8.59995 9.3124 9.07495C9.4118 9.14133 9.52361 9.18696 9.64108 9.20908C9.75854 9.23119 9.87926 9.22938 9.996 9.2037C10.1127 9.17802 10.2231 9.12899 10.3204 9.05962C10.4177 8.99024 10.5 8.90192 10.5624 8.79995C10.6338 8.69881 10.6828 8.58369 10.7064 8.46216C10.73 8.34063 10.7276 8.21546 10.6993 8.09496C10.6709 7.97445 10.6173 7.86133 10.542 7.76308C10.4666 7.66482 10.3714 7.58366 10.2624 7.52496Z" fill="white"/>
<path d="M4.79995 12.7875C4.80158 12.9024 4.82572 13.0159 4.87121 13.1214C4.91669 13.227 4.98258 13.3225 5.06499 13.4026C5.14741 13.4827 5.24476 13.5457 5.35155 13.5882C5.45835 13.6306 5.57249 13.6516 5.6874 13.65H8.46236C8.58056 13.6533 8.69827 13.6334 8.80874 13.5912C8.91921 13.549 9.02038 13.4854 9.10628 13.4042C9.19219 13.3229 9.26113 13.2255 9.30938 13.1176C9.35762 13.0096 9.38411 12.8932 9.38735 12.775C9.38574 12.6574 9.36085 12.5413 9.31396 12.4334C9.26706 12.3255 9.19913 12.228 9.11422 12.1466C9.02931 12.0652 8.92902 12.0014 8.81927 11.9591C8.70951 11.9168 8.59246 11.8967 8.47487 11.9H5.69991C5.5814 11.8948 5.46304 11.9141 5.35232 11.9567C5.2416 11.9993 5.14092 12.0642 5.05645 12.1475C4.97198 12.2308 4.90558 12.3307 4.86144 12.4408C4.8173 12.5509 4.7964 12.6689 4.79995 12.7875Z" fill="white"/>
<path d="M25.8125 12.8C25.8158 12.9149 25.8417 13.028 25.8887 13.133C25.9357 13.2379 26.0028 13.3325 26.0864 13.4115C26.17 13.4904 26.2683 13.5521 26.3757 13.5931C26.4832 13.634 26.5977 13.6533 26.7127 13.65H29.4751C29.5937 13.655 29.7121 13.6362 29.8233 13.5946C29.9345 13.5531 30.0363 13.4896 30.1225 13.408C30.2088 13.3264 30.2778 13.2283 30.3255 13.1196C30.3731 13.0109 30.3985 12.8937 30.4001 12.775C30.4002 12.6569 30.3764 12.5399 30.3301 12.4312C30.2838 12.3226 30.2159 12.2244 30.1306 12.1426C30.0454 12.0609 29.9445 11.9972 29.834 11.9555C29.7235 11.9138 29.6056 11.8949 29.4876 11.9H26.7127C26.5893 11.8979 26.4667 11.9213 26.3527 11.9686C26.2387 12.0159 26.1358 12.0862 26.0501 12.175C25.9685 12.2563 25.9051 12.3542 25.8641 12.4619C25.8232 12.5697 25.8055 12.6849 25.8125 12.8Z" fill="white"/>
</g>
<defs>
<clipPath id="clip0_34_1877">
<rect width="40" height="40" fill="white"/>
</clipPath>
</defs>
</svg>
