<svg width="32" height="32" viewBox="0 0 32 32" fill="none" xmlns="http://www.w3.org/2000/svg">
<g clip-path="url(#clip0_9_764)">
<path d="M15.4041 0H16.7167C16.7375 0.0329435 16.7713 0.0248123 16.8001 0.0252293C17.0973 0.0293994 17.3923 0.0592151 17.6876 0.0888225C18.5215 0.170449 19.347 0.322504 20.1553 0.543359C23.6107 1.49476 26.4573 3.3742 28.6526 6.20547C30.7073 8.85554 31.829 11.8634 31.9744 15.2238C31.9761 15.2639 31.9644 15.3072 31.9992 15.3419V16.6855C31.9738 16.7026 31.9752 16.7292 31.9746 16.7549C31.9702 16.9163 31.9733 17.0781 31.9606 17.2388C31.8922 18.1064 31.7648 18.9659 31.55 19.8095C30.5628 23.6876 28.4392 26.7943 25.1741 29.1056C22.7659 30.8099 20.071 31.7396 17.13 31.9598C16.309 32.019 15.4846 32.0125 14.6647 31.9404C13.7552 31.863 12.8566 31.721 11.976 31.4844C8.17487 30.4626 5.13863 28.343 2.86723 25.1257C1.16013 22.6972 0.237138 19.9833 0.0333964 17.0245C-0.0157532 16.2762 -0.0102462 15.5253 0.0498717 14.7779C0.119841 13.8384 0.273376 12.907 0.508656 11.9948C1.63476 7.67646 4.47714 4.04183 8.39641 1.92407C10.5346 0.768125 12.8191 0.127604 15.2511 0.0266884C15.304 0.0223098 15.3558 0.0241863 15.4041 0ZM10.3825 23.7235C10.4434 23.7051 10.4837 23.6649 10.5285 23.633C12.2941 22.3529 14.0605 21.0728 15.8275 19.7926C16.0402 19.6387 15.9749 19.6412 16.1805 19.7903C17.9391 21.0637 19.6971 22.338 21.4547 23.6132C21.5043 23.649 21.5477 23.6966 21.6184 23.7116C21.6336 23.644 21.599 23.5882 21.5804 23.5314C21.2772 22.5958 20.973 21.6608 20.6678 20.7262C20.2925 19.5735 19.9175 18.4207 19.543 17.2678C19.4959 17.1219 19.4767 17.149 19.6076 17.0526L19.6454 17.0251C21.4249 15.7354 23.2037 14.4456 24.9817 13.1557C25.0215 13.1269 25.0716 13.1067 25.1049 13.036H24.9252C22.7483 13.036 20.5713 13.036 18.3942 13.036C18.1166 13.036 18.1791 13.0752 18.0972 12.8242C17.4188 10.7454 16.7419 8.66719 16.0667 6.58953C16.0516 6.54345 16.0331 6.49841 16.0133 6.44504C15.9588 6.49841 15.9543 6.55805 15.9372 6.61059C15.2586 8.69339 14.5803 10.7762 13.9024 12.859C13.8399 13.0506 13.8835 13.035 13.6564 13.035C11.8907 13.035 10.1251 13.035 8.3595 13.035C7.91677 13.035 7.47425 13.035 7.03153 13.036C6.99545 13.036 6.95082 13.0185 6.92288 13.0619C6.95041 13.109 6.9942 13.1292 7.03153 13.1563C8.57833 14.2784 10.1253 15.4 11.6723 16.5214C11.9209 16.7017 12.1684 16.8837 12.4197 17.0606C12.4909 17.1106 12.5192 17.1617 12.4763 17.2424C12.4684 17.2616 12.4622 17.2815 12.4577 17.3018C11.7783 19.3897 11.0989 21.4776 10.4194 23.5654C10.4034 23.6132 10.3771 23.6597 10.3825 23.7235Z" fill="#DA251D"/>
<path d="M10.3825 23.7235C10.3768 23.6597 10.4033 23.6136 10.4192 23.5656C11.0982 21.4777 11.7776 19.3898 12.4574 17.302C12.4619 17.2817 12.4681 17.2618 12.476 17.2426C12.5189 17.1619 12.4906 17.1108 12.4195 17.0608C12.1682 16.884 11.9206 16.7019 11.6721 16.5216C10.1249 15.4 8.57791 14.2783 7.03126 13.1565C6.99393 13.1294 6.95013 13.1092 6.92261 13.0621C6.95055 13.0187 6.99518 13.0362 7.03126 13.0362C7.47398 13.0348 7.9165 13.0352 8.35923 13.0352C10.1249 13.0352 11.8905 13.0352 13.6561 13.0352C13.8832 13.0352 13.8396 13.0508 13.9022 12.8592C14.5812 10.7767 15.2594 8.69389 15.9369 6.6108C15.954 6.55826 15.9577 6.49863 16.013 6.44525C16.0328 6.49863 16.0514 6.54366 16.0664 6.58974C16.743 8.66755 17.4199 10.7456 18.0969 12.824C18.1789 13.0742 18.1163 13.0356 18.3939 13.0358C20.5707 13.0371 22.7477 13.0371 24.9249 13.0358H25.1053C25.0719 13.1065 25.0219 13.1267 24.982 13.1555C23.2033 14.4453 21.4244 15.735 19.6453 17.0245L19.6076 17.052C19.4766 17.1483 19.4958 17.1221 19.5429 17.2672C19.9166 18.4202 20.2916 19.573 20.6678 20.7256C20.9722 21.6604 21.2766 22.5951 21.581 23.5298C21.5995 23.5865 21.6341 23.6424 21.6189 23.7099C21.5482 23.6955 21.5049 23.6474 21.4552 23.6115C19.6967 22.3384 17.9382 21.0646 16.1798 19.7903C15.9742 19.6412 16.0395 19.6387 15.8268 19.7926C14.0602 21.0722 12.2941 22.3527 10.5284 23.634C10.4838 23.6649 10.4436 23.7051 10.3825 23.7235Z" fill="#FFFE00"/>
</g>
<defs>
<clipPath id="clip0_9_764">
<rect width="32" height="32" fill="white"/>
</clipPath>
</defs>
</svg>
