<svg width="24" height="24" viewBox="0 0 24 24" fill="none" xmlns="http://www.w3.org/2000/svg">
<g clip-path="url(#clip0_172_766)">
<path d="M0.000120006 12.015C0.000120006 9.01499 0.000120006 5.9625 0.000120006 2.9325C-0.0221503 2.35435 0.135458 1.7835 0.451109 1.2986C0.766759 0.813709 1.225 0.438617 1.76269 0.224987C2.11263 0.072355 2.49093 -0.00432278 2.87268 -4.28385e-06H21.0151C21.4037 -0.0151543 21.7912 0.0483139 22.1546 0.186626C22.518 0.324938 22.8498 0.535228 23.13 0.804882C23.4102 1.07453 23.6329 1.39802 23.785 1.75589C23.9371 2.11375 24.0154 2.49865 24.0151 2.8875V21C24.0298 21.6466 23.8351 22.2806 23.4601 22.8075C23.2129 23.1511 22.8919 23.4351 22.5208 23.6389C22.1497 23.8426 21.7377 23.9608 21.3151 23.985C21.1677 23.9925 21.0201 23.9925 20.8727 23.985H3.12005C2.42619 24.0151 1.74236 23.8118 1.17767 23.4075C0.876703 23.1901 0.623071 22.9138 0.432249 22.5953C0.241427 22.2769 0.117418 21.9229 0.0676859 21.555C0.0311692 21.3067 0.0135671 21.056 0.0151347 20.805L0.000120006 12.015ZM7.32763 19.275V19.32C7.51513 19.2675 7.71013 19.23 7.89013 19.1625C8.41513 18.96 8.93252 18.7275 9.45752 18.5325C10.1166 18.2942 10.8386 18.2942 11.4977 18.5325C11.9552 18.69 12.4126 18.855 12.8776 18.99C13.6924 19.2202 14.5298 19.361 15.3751 19.41C16.8477 19.5124 18.3269 19.3602 19.7477 18.96C20.7449 18.6797 21.7025 18.274 22.5975 17.7525C22.7325 17.67 22.8301 17.61 22.8301 17.4225C22.8301 12.585 22.8301 7.75499 22.8301 2.92499C22.8327 2.66651 22.779 2.41056 22.6726 2.17499C22.5421 1.85241 22.313 1.57932 22.018 1.39478C21.723 1.21024 21.3773 1.12369 21.0301 1.14749H8.45263C8.33374 1.14478 8.21839 1.18773 8.13019 1.2675C7.24317 2.02662 6.48354 2.92297 5.88019 3.92248C4.58732 6.08969 4.19667 8.6778 4.79254 11.13C5.00958 12.0088 5.34521 12.8541 5.7901 13.6425C6.25956 14.4678 6.84 15.2249 7.51513 15.8925C7.73243 16.0874 7.87335 16.3533 7.91266 16.6425C8.04156 17.4952 7.85203 18.3656 7.38019 19.0875L7.32763 19.275ZM22.8601 18.93L22.6426 19.0275C19.8263 20.4643 16.6067 20.9057 13.5076 20.28C12.7668 20.1323 12.0393 19.9241 11.3325 19.6575C10.9845 19.476 10.5846 19.4204 10.2002 19.5C9.82061 19.6261 9.44746 19.7713 9.08252 19.935C8.60163 20.1586 8.09897 20.332 7.58252 20.4525C6.94598 20.5763 6.29168 20.5763 5.65515 20.4525C5.52822 20.4364 5.4104 20.3782 5.32062 20.287C5.23083 20.1959 5.17417 20.0772 5.16003 19.95C5.14005 19.8266 5.16358 19.7 5.2265 19.592C5.28942 19.4839 5.38797 19.401 5.50519 19.3575C5.61623 19.3126 5.72394 19.26 5.82763 19.2C6.17058 18.9608 6.4455 18.6367 6.62561 18.2594C6.80572 17.8821 6.88475 17.4645 6.85504 17.0475C6.86155 16.9749 6.85218 16.9017 6.82757 16.833C6.80297 16.7644 6.76375 16.7019 6.71258 16.65C5.66169 15.5935 4.82618 14.3428 4.25256 12.9675C3.85009 11.991 3.59724 10.9594 3.50256 9.90749C3.40259 8.94731 3.43804 7.97785 3.60766 7.02749C3.74292 6.22921 3.96933 5.44909 4.28259 4.70249C4.81088 3.444 5.55731 2.28876 6.48755 1.29C6.52908 1.24767 6.56453 1.1997 6.59265 1.14749H6.42016C5.24266 1.14749 4.05769 1.14749 2.88019 1.14749C2.64058 1.15534 2.4042 1.20613 2.18255 1.29748C1.86273 1.43104 1.59269 1.66108 1.40985 1.95552C1.227 2.24995 1.14057 2.5941 1.16266 2.93998C1.16266 8.86998 1.16266 14.8075 1.16266 20.7525V21.1125C1.16772 21.4195 1.24738 21.7207 1.39502 21.99C1.55309 22.2628 1.78274 22.4872 2.05896 22.6392C2.33518 22.7912 2.64756 22.865 2.96258 22.8525H21.1576C21.46 22.8484 21.7565 22.7684 22.02 22.62C22.2896 22.4665 22.512 22.2419 22.6627 21.9708C22.8135 21.6997 22.8869 21.3925 22.8751 21.0825C22.8751 20.43 22.8751 19.7775 22.8751 19.125L22.8601 18.93Z" fill="black"/>
<path d="M9.80266 8.01755H9.58513C9.05263 8.01755 8.52003 8.01755 7.98753 8.01755C7.83835 8.02849 7.69097 7.97972 7.57774 7.88196C7.46452 7.78421 7.39477 7.64548 7.38383 7.4963C7.37289 7.34711 7.42176 7.19969 7.51951 7.08646C7.61727 6.97324 7.75595 6.90349 7.90513 6.89255H10.8376C10.9163 6.89037 10.9946 6.90452 11.0675 6.9341C11.1405 6.96367 11.2065 7.00805 11.2615 7.06442C11.3164 7.12079 11.3592 7.18792 11.3869 7.2616C11.4146 7.33529 11.4268 7.41393 11.4226 7.49254C11.4053 7.60717 11.3645 7.71697 11.3027 7.81504C10.5877 8.97004 9.87007 10.12 9.15007 11.265L9.05266 11.4376H9.26268H10.8751C10.9945 11.4345 11.1115 11.4711 11.2078 11.5417C11.3042 11.6123 11.3744 11.7128 11.4076 11.8275C11.4465 11.9298 11.4514 12.042 11.4217 12.1473C11.392 12.2527 11.3292 12.3456 11.2426 12.4125C11.14 12.5018 11.0108 12.5545 10.8751 12.5626C9.91511 12.5626 8.94753 12.5626 7.98753 12.5626C7.88969 12.5619 7.79387 12.5354 7.70958 12.4857C7.62528 12.436 7.55558 12.3649 7.50761 12.2797C7.45964 12.1944 7.43507 12.0979 7.43638 12.0001C7.4377 11.9023 7.46487 11.8065 7.51512 11.7226C7.78512 11.2501 8.08505 10.7925 8.37755 10.3275C8.82005 9.57754 9.27008 8.88754 9.72008 8.16754L9.80266 8.01755Z" fill="black"/>
<path d="M15.4202 10.5674V11.9474C15.4317 12.066 15.4041 12.185 15.3418 12.2865C15.2796 12.388 15.1861 12.4665 15.0752 12.5099C14.9718 12.5596 14.8548 12.5741 14.7423 12.5511C14.6299 12.528 14.5282 12.4688 14.4527 12.3824C14.3702 12.2924 14.3026 12.3374 14.2276 12.3824C13.9909 12.4902 13.7352 12.55 13.4752 12.5585C13.2153 12.567 12.9562 12.524 12.713 12.432C12.4697 12.34 12.2469 12.2008 12.0576 12.0224C11.8684 11.8439 11.7163 11.6299 11.6101 11.3925C11.4987 11.1466 11.4384 10.8807 11.4327 10.6109C11.427 10.341 11.476 10.0728 11.577 9.82253C11.6779 9.57222 11.8288 9.34498 12.0201 9.1546C12.2114 8.96423 12.4393 8.81466 12.6901 8.71495C12.9273 8.61428 13.1824 8.5624 13.4401 8.5624C13.6978 8.5624 13.9529 8.61428 14.1901 8.71495C14.2328 8.74392 14.2848 8.7561 14.336 8.74919C14.3872 8.74227 14.4341 8.71674 14.4677 8.67745C14.5466 8.60764 14.6436 8.56173 14.7476 8.54507C14.8517 8.52841 14.9583 8.5417 15.0551 8.58338C15.1518 8.62507 15.2347 8.69343 15.294 8.78047C15.3534 8.86752 15.3867 8.96966 15.3902 9.07495C15.3902 9.56245 15.3902 10.05 15.3902 10.575L15.4202 10.5674ZM14.2802 10.5674C14.2824 10.454 14.2612 10.3412 14.2179 10.2363C14.1746 10.1314 14.1101 10.0365 14.0284 9.95771C13.9467 9.87886 13.8497 9.81772 13.7433 9.7781C13.6369 9.73848 13.5234 9.72124 13.4101 9.72745C13.241 9.73044 13.0767 9.7835 12.9378 9.87991C12.7989 9.97632 12.6916 10.1117 12.6297 10.2691C12.5677 10.4264 12.5538 10.5986 12.5897 10.7638C12.6256 10.9291 12.7098 11.0799 12.8314 11.1974C12.9531 11.3148 13.1067 11.3936 13.2731 11.4237C13.4395 11.4538 13.6111 11.4338 13.7662 11.3664C13.9213 11.299 14.0528 11.1871 14.1443 11.0449C14.2358 10.9027 14.2831 10.7365 14.2802 10.5674Z" fill="black"/>
<path d="M19.7026 12.5625C19.3083 12.561 18.9234 12.4427 18.5963 12.2226C18.2692 12.0025 18.0146 11.6904 17.8648 11.3258C17.7149 10.9611 17.6765 10.5602 17.7544 10.1737C17.8322 9.7872 18.0227 9.43245 18.302 9.15419C18.5813 8.87594 18.9368 8.68667 19.3236 8.6103C19.7104 8.53393 20.1112 8.57387 20.4753 8.72508C20.8394 8.8763 21.1505 9.132 21.3694 9.45991C21.5883 9.78782 21.705 10.1732 21.705 10.5675C21.705 10.8301 21.6532 11.0902 21.5525 11.3327C21.4518 11.5752 21.3042 11.7955 21.1182 11.9808C20.9321 12.1662 20.7113 12.313 20.4683 12.4128C20.2254 12.5126 19.9652 12.5635 19.7026 12.5625ZM19.7026 9.71999C19.4906 9.73991 19.2937 9.83819 19.1504 9.99563C19.007 10.1531 18.9275 10.3583 18.9275 10.5712C18.9275 10.7842 19.007 10.9894 19.1504 11.1468C19.2937 11.3043 19.4906 11.4026 19.7026 11.4225C19.8211 11.4336 19.9405 11.4199 20.0534 11.3822C20.1663 11.3445 20.2701 11.2836 20.3581 11.2035C20.4461 11.1233 20.5165 11.0257 20.5647 10.9168C20.6128 10.808 20.6375 10.6903 20.6375 10.5712C20.6375 10.4522 20.6128 10.3345 20.5647 10.2256C20.5165 10.1168 20.4461 10.0191 20.3581 9.939C20.2701 9.85887 20.1663 9.79801 20.0534 9.76029C19.9405 9.72258 19.8211 9.70885 19.7026 9.71999Z" fill="black"/>
<path d="M17.1376 9.44241V11.9474C17.1494 12.057 17.1302 12.1677 17.0825 12.2671C17.0348 12.3665 16.9604 12.4505 16.8675 12.5099C16.7826 12.5626 16.6853 12.592 16.5854 12.5952C16.4855 12.5984 16.3866 12.5752 16.2985 12.5281C16.2103 12.481 16.1361 12.4116 16.0833 12.3268C16.0305 12.242 16.001 12.1448 15.9976 12.0449C15.9936 12.0025 15.9936 11.9598 15.9976 11.9174C15.9976 10.2724 15.9976 8.62992 15.9976 6.98992C15.9953 6.89108 16.0078 6.79246 16.035 6.6974C16.0722 6.57621 16.1498 6.47143 16.2549 6.40048C16.3599 6.32952 16.4862 6.29668 16.6125 6.30741C16.7417 6.31666 16.8637 6.37021 16.958 6.45902C17.0523 6.54784 17.1132 6.66649 17.1301 6.79491C17.1301 6.87741 17.1301 6.95241 17.1301 7.03491L17.1376 9.44241Z" fill="black"/>
</g>
<defs>
<clipPath id="clip0_172_766">
<rect width="24" height="24" fill="blue"/>
</clipPath>
</defs>
</svg>
