<svg width="24" height="24" viewBox="0 0 24 24" fill="none" xmlns="http://www.w3.org/2000/svg">
<g clip-path="url(#clip0_55_2057)">
<path d="M0.000120006 12.015C0.000120006 9.01499 0.000120006 5.9625 0.000120006 2.9325C-0.0221503 2.35435 0.135458 1.7835 0.451109 1.2986C0.766759 0.813709 1.225 0.438617 1.76269 0.224987C2.11263 0.072355 2.49093 -0.00432278 2.87268 -4.28385e-06H21.0151C21.4037 -0.0151543 21.7912 0.0483139 22.1546 0.186626C22.518 0.324938 22.8498 0.535228 23.13 0.804882C23.4102 1.07453 23.6329 1.39802 23.785 1.75589C23.9371 2.11375 24.0154 2.49865 24.0151 2.8875V21C24.0298 21.6466 23.8351 22.2806 23.4601 22.8075C23.2129 23.1511 22.8919 23.4351 22.5208 23.6389C22.1497 23.8426 21.7377 23.9608 21.3151 23.985C21.1677 23.9925 21.0201 23.9925 20.8727 23.985H3.12005C2.42619 24.0151 1.74236 23.8118 1.17767 23.4075C0.876703 23.1901 0.623071 22.9138 0.432249 22.5953C0.241427 22.2769 0.117418 21.9229 0.0676859 21.555C0.0311692 21.3067 0.0135671 21.056 0.0151347 20.805L0.000120006 12.015ZM7.32763 19.275V19.32C7.51513 19.2675 7.71013 19.23 7.89013 19.1625C8.41513 18.96 8.93252 18.7275 9.45752 18.5325C10.1166 18.2942 10.8386 18.2942 11.4977 18.5325C11.9552 18.69 12.4126 18.855 12.8776 18.99C13.6924 19.2202 14.5298 19.361 15.3751 19.41C16.8477 19.5124 18.3269 19.3602 19.7477 18.96C20.7449 18.6797 21.7025 18.274 22.5975 17.7525C22.7325 17.67 22.8301 17.61 22.8301 17.4225C22.8301 12.585 22.8301 7.75499 22.8301 2.92499C22.8327 2.66651 22.779 2.41056 22.6726 2.17499C22.5421 1.85241 22.313 1.57932 22.018 1.39478C21.723 1.21024 21.3773 1.12369 21.0301 1.14749H8.45263C8.33375 1.14478 8.21839 1.18773 8.13019 1.2675C7.24317 2.02662 6.48354 2.92297 5.88019 3.92248C4.58732 6.08969 4.19667 8.6778 4.79254 11.13C5.00958 12.0088 5.34521 12.8541 5.7901 13.6425C6.25956 14.4678 6.84 15.2249 7.51513 15.8925C7.73243 16.0874 7.87335 16.3533 7.91266 16.6425C8.04156 17.4952 7.85203 18.3656 7.38019 19.0875L7.32763 19.275ZM22.8601 18.93L22.6426 19.0275C19.8263 20.4643 16.6067 20.9057 13.5076 20.28C12.7668 20.1323 12.0393 19.9241 11.3325 19.6575C10.9845 19.476 10.5846 19.4204 10.2002 19.5C9.82061 19.6261 9.44746 19.7713 9.08252 19.935C8.60163 20.1586 8.09897 20.332 7.58252 20.4525C6.94598 20.5763 6.29168 20.5763 5.65515 20.4525C5.52822 20.4364 5.4104 20.3782 5.32062 20.287C5.23083 20.1959 5.17417 20.0772 5.16003 19.95C5.14005 19.8266 5.16358 19.7 5.2265 19.592C5.28942 19.4839 5.38798 19.401 5.50519 19.3575C5.61623 19.3126 5.72394 19.26 5.82763 19.2C6.17058 18.9608 6.4455 18.6367 6.62561 18.2594C6.80572 17.8821 6.88475 17.4645 6.85504 17.0475C6.86155 16.9749 6.85218 16.9017 6.82757 16.833C6.80297 16.7644 6.76375 16.7019 6.71258 16.65C5.66169 15.5935 4.82618 14.3428 4.25256 12.9675C3.85009 11.991 3.59724 10.9594 3.50256 9.90749C3.40259 8.94731 3.43804 7.97785 3.60766 7.02749C3.74292 6.22921 3.96933 5.44909 4.28259 4.70249C4.81088 3.444 5.55731 2.28876 6.48755 1.29C6.52908 1.24767 6.56453 1.1997 6.59265 1.14749H6.42016C5.24266 1.14749 4.05769 1.14749 2.88019 1.14749C2.64058 1.15534 2.4042 1.20613 2.18255 1.29748C1.86273 1.43104 1.59269 1.66108 1.40985 1.95552C1.227 2.24995 1.14057 2.5941 1.16266 2.93998C1.16266 8.86998 1.16266 14.8075 1.16266 20.7525V21.1125C1.16772 21.4195 1.24738 21.7207 1.39502 21.99C1.55309 22.2628 1.78274 22.4872 2.05896 22.6392C2.33518 22.7912 2.64756 22.865 2.96258 22.8525H21.1576C21.46 22.8484 21.7565 22.7684 22.02 22.62C22.2896 22.4665 22.512 22.2419 22.6627 21.9708C22.8135 21.6997 22.8869 21.3925 22.8751 21.0825C22.8751 20.43 22.8751 19.7775 22.8751 19.125L22.8601 18.93Z" fill="white"/>
<path d="M9.80314 8.01749H9.58562C9.05312 8.01749 8.52052 8.01749 7.98802 8.01749C7.83884 8.02843 7.69146 7.97966 7.57823 7.8819C7.46501 7.78415 7.39526 7.64542 7.38432 7.49624C7.37338 7.34705 7.42225 7.19963 7.52 7.0864C7.61776 6.97318 7.75644 6.90343 7.90562 6.89249H10.8381C10.9168 6.89031 10.9951 6.90445 11.068 6.93403C11.141 6.96361 11.207 7.00799 11.2619 7.06436C11.3169 7.12073 11.3596 7.18785 11.3874 7.26154C11.4151 7.33523 11.4273 7.41386 11.4231 7.49248C11.4058 7.60711 11.365 7.71691 11.3031 7.81498C10.5881 8.96998 9.87056 10.12 9.15056 11.265L9.05314 11.4375H9.26317H10.8756C10.995 11.4345 11.1119 11.4711 11.2083 11.5417C11.3046 11.6122 11.3749 11.7127 11.4081 11.8275C11.447 11.9298 11.4519 12.0419 11.4222 12.1473C11.3924 12.2526 11.3297 12.3456 11.2431 12.4125C11.1405 12.5017 11.0113 12.5545 10.8756 12.5625C9.91559 12.5625 8.94802 12.5625 7.98802 12.5625C7.89018 12.5618 7.79436 12.5353 7.71007 12.4856C7.62577 12.436 7.55607 12.3649 7.5081 12.2796C7.46013 12.1943 7.43556 12.0979 7.43687 12C7.43819 11.9022 7.46536 11.8065 7.51561 11.7225C7.78561 11.25 8.08554 10.7925 8.37804 10.3275C8.82054 9.57748 9.27056 8.88748 9.72056 8.16748L9.80314 8.01749Z" fill="white"/>
<path d="M15.4196 10.5675V11.9475C15.4311 12.066 15.4035 12.1851 15.3412 12.2866C15.2789 12.3881 15.1855 12.4665 15.0746 12.51C14.9712 12.5597 14.8541 12.5742 14.7417 12.5511C14.6293 12.5281 14.5276 12.4689 14.452 12.3825C14.3695 12.2925 14.302 12.3375 14.227 12.3825C13.9903 12.4902 13.7346 12.5501 13.4746 12.5586C13.2147 12.5671 12.9556 12.5241 12.7124 12.4321C12.4691 12.3401 12.2463 12.2008 12.057 12.0224C11.8678 11.844 11.7157 11.6299 11.6095 11.3925C11.4981 11.1467 11.4378 10.8808 11.4321 10.6109C11.4264 10.3411 11.4754 10.0729 11.5764 9.82259C11.6773 9.57228 11.8282 9.34504 12.0195 9.15467C12.2108 8.96429 12.4387 8.81472 12.6895 8.71501C12.9267 8.61434 13.1818 8.56246 13.4395 8.56246C13.6972 8.56246 13.9522 8.61434 14.1895 8.71501C14.2322 8.74398 14.2842 8.75617 14.3354 8.74925C14.3866 8.74233 14.4335 8.7168 14.4671 8.67752C14.546 8.6077 14.643 8.56179 14.747 8.54513C14.851 8.52847 14.9577 8.54176 15.0545 8.58345C15.1512 8.62513 15.2341 8.69349 15.2934 8.78054C15.3527 8.86758 15.3861 8.96973 15.3895 9.07501C15.3895 9.56251 15.3895 10.05 15.3895 10.575L15.4196 10.5675ZM14.2796 10.5675C14.2818 10.454 14.2606 10.3413 14.2173 10.2364C14.174 10.1314 14.1094 10.0366 14.0278 9.95777C13.9461 9.87892 13.8491 9.81778 13.7427 9.77816C13.6363 9.73854 13.5228 9.7213 13.4094 9.72751C13.2404 9.7305 13.0761 9.78356 12.9372 9.87997C12.7983 9.97638 12.691 10.1118 12.629 10.2691C12.5671 10.4265 12.5532 10.5987 12.5891 10.7639C12.625 10.9291 12.7092 11.08 12.8308 11.1975C12.9525 11.3149 13.1061 11.3937 13.2725 11.4237C13.4389 11.4538 13.6105 11.4339 13.7656 11.3664C13.9206 11.299 14.0522 11.1871 14.1437 11.0449C14.2352 10.9027 14.2825 10.7366 14.2796 10.5675Z" fill="white"/>
<path d="M19.7024 12.5625C19.3081 12.561 18.9231 12.4427 18.596 12.2226C18.2689 12.0025 18.0144 11.6904 17.8645 11.3258C17.7147 10.9611 17.6763 10.5602 17.7541 10.1737C17.8319 9.7872 18.0225 9.43245 18.3018 9.15419C18.5811 8.87594 18.9365 8.68667 19.3233 8.6103C19.7101 8.53393 20.111 8.57387 20.4751 8.72508C20.8392 8.8763 21.1503 9.132 21.3692 9.45991C21.588 9.78782 21.7048 10.1732 21.7048 10.5675C21.7048 10.8301 21.653 11.0902 21.5523 11.3327C21.4515 11.5752 21.304 11.7955 21.1179 11.9808C20.9319 12.1662 20.711 12.313 20.4681 12.4128C20.2252 12.5126 19.965 12.5635 19.7024 12.5625ZM19.7024 9.71999C19.4904 9.73991 19.2934 9.83819 19.1501 9.99563C19.0068 10.1531 18.9273 10.3583 18.9273 10.5712C18.9273 10.7842 19.0068 10.9894 19.1501 11.1468C19.2934 11.3043 19.4904 11.4026 19.7024 11.4225C19.8209 11.4336 19.9403 11.4199 20.0532 11.3822C20.1661 11.3445 20.2699 11.2836 20.3579 11.2035C20.4459 11.1233 20.5163 11.0257 20.5644 10.9168C20.6125 10.808 20.6373 10.6903 20.6373 10.5712C20.6373 10.4522 20.6125 10.3345 20.5644 10.2256C20.5163 10.1168 20.4459 10.0191 20.3579 9.939C20.2699 9.85887 20.1661 9.79801 20.0532 9.76029C19.9403 9.72258 19.8209 9.70885 19.7024 9.71999Z" fill="white"/>
<path d="M17.1371 9.44253V11.9475C17.1489 12.0571 17.1297 12.1678 17.082 12.2672C17.0343 12.3666 16.9599 12.4507 16.8671 12.51C16.7821 12.5627 16.6848 12.5921 16.5849 12.5953C16.485 12.5985 16.3861 12.5754 16.298 12.5283C16.2098 12.4812 16.1356 12.4117 16.0828 12.3269C16.03 12.2421 16.0005 12.1449 15.9971 12.045C15.9931 12.0026 15.9931 11.9599 15.9971 11.9175C15.9971 10.2725 15.9971 8.63004 15.9971 6.99004C15.9948 6.89121 16.0073 6.79258 16.0345 6.69753C16.0717 6.57634 16.1493 6.47155 16.2544 6.4006C16.3595 6.32964 16.4857 6.2968 16.612 6.30753C16.7412 6.31678 16.8632 6.37033 16.9575 6.45915C17.0518 6.54796 17.1127 6.66661 17.1296 6.79503C17.1296 6.87753 17.1296 6.95254 17.1296 7.03504L17.1371 9.44253Z" fill="white"/>
</g>
<defs>
<clipPath id="clip0_55_2057">
<rect width="24" height="24" fill="white"/>
</clipPath>
</defs>
</svg>
