<svg xmlns="http://www.w3.org/2000/svg" width="24" height="24" viewBox="0 0 24 24" fill="none">
  <path d="M21.8571 1.28564H2.14279C1.66868 1.28564 1.28564 1.66868 1.28564 2.14279V21.8571C1.28564 22.3312 1.66868 22.7142 2.14279 22.7142H21.8571C22.3312 22.7142 22.7142 22.3312 22.7142 21.8571V2.14279C22.7142 1.66868 22.3312 1.28564 21.8571 1.28564ZM20.9999 20.9999H16.0687V14.416H18.8544L19.2723 11.183H16.0687V9.11779C16.0687 8.18029 16.3285 7.54279 17.6705 7.54279H19.3821V4.64993C19.0848 4.60975 18.0696 4.52136 16.8856 4.52136C14.416 4.52136 12.7258 6.02939 12.7258 8.79636V11.1803H9.93475V14.4133H12.7285V20.9999H2.99993V2.99993H20.9999V20.9999Z" fill="black"/>
</svg>