<svg xmlns="http://www.w3.org/2000/svg" width="24" height="24" viewBox="0 0 24 24" fill="none">
  <path d="M21.8566 1.28571H2.1423C1.66819 1.28571 1.28516 1.66874 1.28516 2.14285V21.8571C1.28516 22.3312 1.66819 22.7143 2.1423 22.7143H21.8566C22.3307 22.7143 22.7137 22.3312 22.7137 21.8571V2.14285C22.7137 1.66874 22.3307 1.28571 21.8566 1.28571ZM20.9994 21H16.0682V14.4161H18.8539L19.2718 11.183H16.0682V9.11785C16.0682 8.18035 16.328 7.54285 17.67 7.54285H19.3816V4.64999C19.0843 4.60981 18.0691 4.52142 16.8852 4.52142C14.4155 4.52142 12.7253 6.02946 12.7253 8.79642V11.1803H9.93426V14.4134H12.728V21H2.99944V2.99999H20.9994V21Z" fill="white"/>
</svg>