<svg xmlns="http://www.w3.org/2000/svg" width="24" height="24" viewBox="0 0 24 24" fill="none">
  <path d="M11.9993 6.50627C8.95911 6.50627 6.50554 8.95984 6.50554 12C6.50554 15.0402 8.95911 17.4938 11.9993 17.4938C15.0395 17.4938 17.493 15.0402 17.493 12C17.493 8.95984 15.0395 6.50627 11.9993 6.50627ZM11.9993 15.5706C10.0332 15.5706 8.42875 13.9661 8.42875 12C8.42875 10.0339 10.0332 8.42948 11.9993 8.42948C13.9654 8.42948 15.5698 10.0339 15.5698 12C15.5698 13.9661 13.9654 15.5706 11.9993 15.5706ZM17.718 5.00091C17.0082 5.00091 16.435 5.57412 16.435 6.28394C16.435 6.99377 17.0082 7.56698 17.718 7.56698C18.4279 7.56698 19.0011 6.99644 19.0011 6.28394C19.0013 6.11539 18.9682 5.94846 18.9038 5.7927C18.8394 5.63694 18.7449 5.49541 18.6258 5.37623C18.5066 5.25705 18.365 5.16255 18.2093 5.09814C18.0535 5.03374 17.8866 5.0007 17.718 5.00091ZM22.7082 12C22.7082 10.5214 22.7216 9.05627 22.6386 7.58037C22.5555 5.86609 22.1645 4.34466 20.9109 3.09109C19.6546 1.83484 18.1359 1.44644 16.4216 1.36341C14.943 1.28037 13.4779 1.29377 12.002 1.29377C10.5234 1.29377 9.05822 1.28037 7.58233 1.36341C5.86804 1.44644 4.34661 1.83752 3.09304 3.09109C1.83679 4.34734 1.4484 5.86609 1.36536 7.58037C1.28233 9.05894 1.29572 10.5241 1.29572 12C1.29572 13.4759 1.28233 14.9438 1.36536 16.4197C1.4484 18.1339 1.83947 19.6554 3.09304 20.9089C4.34929 22.1652 5.86804 22.5536 7.58233 22.6366C9.0609 22.7197 10.5261 22.7063 12.002 22.7063C13.4805 22.7063 14.9457 22.7197 16.4216 22.6366C18.1359 22.5536 19.6573 22.1625 20.9109 20.9089C22.1672 19.6527 22.5555 18.1339 22.6386 16.4197C22.7243 14.9438 22.7082 13.4786 22.7082 12ZM20.3511 18.3161C20.1555 18.8036 19.9198 19.1679 19.5421 19.5429C19.1645 19.9206 18.8029 20.1563 18.3154 20.3518C16.9064 20.9116 13.5609 20.7857 11.9993 20.7857C10.4377 20.7857 7.08947 20.9116 5.68054 20.3545C5.19304 20.1589 4.82875 19.9232 4.45375 19.5456C4.07608 19.1679 3.84036 18.8063 3.64483 18.3188C3.08768 16.9072 3.21358 13.5616 3.21358 12C3.21358 10.4384 3.08768 7.09019 3.64483 5.68127C3.84036 5.19377 4.07608 4.82948 4.45375 4.45448C4.83143 4.07948 5.19304 3.84109 5.68054 3.64555C7.08947 3.08841 10.4377 3.2143 11.9993 3.2143C13.5609 3.2143 16.9091 3.08841 18.318 3.64555C18.8055 3.84109 19.1698 4.0768 19.5448 4.45448C19.9225 4.83216 20.1582 5.19377 20.3538 5.68127C20.9109 7.09019 20.785 10.4384 20.785 12C20.785 13.5616 20.9109 16.9072 20.3511 18.3161Z" fill="white"/>
</svg>