<svg xmlns="http://www.w3.org/2000/svg" width="24" height="24" viewBox="0 0 24 24" fill="none">
  <path d="M11.9998 6.50627C8.9596 6.50627 6.50603 8.95984 6.50603 12C6.50603 15.0402 8.9596 17.4938 11.9998 17.4938C15.04 17.4938 17.4935 15.0402 17.4935 12C17.4935 8.95984 15.04 6.50627 11.9998 6.50627ZM11.9998 15.5706C10.0337 15.5706 8.42924 13.9661 8.42924 12C8.42924 10.0339 10.0337 8.42948 11.9998 8.42948C13.9659 8.42948 15.5703 10.0339 15.5703 12C15.5703 13.9661 13.9659 15.5706 11.9998 15.5706ZM17.7185 5.00091C17.0087 5.00091 16.4355 5.57412 16.4355 6.28394C16.4355 6.99377 17.0087 7.56698 17.7185 7.56698C18.4284 7.56698 19.0016 6.99644 19.0016 6.28394C19.0018 6.11539 18.9687 5.94846 18.9043 5.7927C18.8399 5.63694 18.7454 5.49541 18.6262 5.37623C18.5071 5.25705 18.3655 5.16255 18.2098 5.09814C18.054 5.03374 17.8871 5.0007 17.7185 5.00091ZM22.7087 12C22.7087 10.5214 22.7221 9.05627 22.6391 7.58037C22.556 5.86609 22.165 4.34466 20.9114 3.09109C19.6551 1.83484 18.1364 1.44644 16.4221 1.36341C14.9435 1.28037 13.4783 1.29377 12.0025 1.29377C10.5239 1.29377 9.05871 1.28037 7.58281 1.36341C5.86853 1.44644 4.3471 1.83752 3.09353 3.09109C1.83728 4.34734 1.44889 5.86609 1.36585 7.58037C1.28281 9.05894 1.29621 10.5241 1.29621 12C1.29621 13.4759 1.28281 14.9438 1.36585 16.4197C1.44889 18.1339 1.83996 19.6554 3.09353 20.9089C4.34978 22.1652 5.86853 22.5536 7.58281 22.6366C9.06139 22.7197 10.5266 22.7063 12.0025 22.7063C13.481 22.7063 14.9462 22.7197 16.4221 22.6366C18.1364 22.5536 19.6578 22.1625 20.9114 20.9089C22.1676 19.6527 22.556 18.1339 22.6391 16.4197C22.7248 14.9438 22.7087 13.4786 22.7087 12ZM20.3516 18.3161C20.156 18.8036 19.9203 19.1679 19.5426 19.5429C19.165 19.9206 18.8034 20.1563 18.3159 20.3518C16.9069 20.9116 13.5614 20.7857 11.9998 20.7857C10.4382 20.7857 7.08996 20.9116 5.68103 20.3545C5.19353 20.1589 4.82924 19.9232 4.45424 19.5456C4.07656 19.1679 3.84085 18.8063 3.64531 18.3188C3.08817 16.9072 3.21406 13.5616 3.21406 12C3.21406 10.4384 3.08817 7.09019 3.64531 5.68127C3.84085 5.19377 4.07656 4.82948 4.45424 4.45448C4.83192 4.07948 5.19353 3.84109 5.68103 3.64555C7.08996 3.08841 10.4382 3.2143 11.9998 3.2143C13.5614 3.2143 16.9096 3.08841 18.3185 3.64555C18.806 3.84109 19.1703 4.0768 19.5453 4.45448C19.923 4.83216 20.1587 5.19377 20.3542 5.68127C20.9114 7.09019 20.7855 10.4384 20.7855 12C20.7855 13.5616 20.9114 16.9072 20.3516 18.3161Z" fill="black"/>
</svg>