<svg xmlns="http://www.w3.org/2000/svg" width="89" height="92" viewBox="0 0 89 92" fill="none">
  <g clip-path="url(#clip0_105_1427)">
    <path d="M2.3426 84.3274V91.8066H0V80.3381H2.01975L7.89754 87.8165V80.3381H10.2393V91.8066H8.22209L2.3426 84.3274Z" fill="white"/>
    <path d="M18.2359 80.3381L23.1946 91.8066H20.7395L19.6253 89.1889H14.7314L13.6291 91.8066H11.209L16.1497 80.3381H18.2359ZM18.753 87.1376L17.1864 83.4235L15.6028 87.1376H18.753Z" fill="white"/>
    <path d="M30.0111 85.4586L33.7431 80.3381H35.8728V91.8066H33.5336V84.3435L30.0111 89.1735L26.493 84.3435V91.8066H24.1504V80.3381H26.28L30.0111 85.4586Z" fill="white"/>
    <path d="M48.2147 81.1057C49.1002 81.5983 49.839 82.3174 50.3554 83.1893C50.8686 84.0634 51.1392 85.0587 51.1392 86.0724C51.1392 87.086 50.8686 88.0813 50.3554 88.9555C49.8388 89.8272 49.1 90.5462 48.2147 91.0391C47.3086 91.5506 46.2839 91.815 45.2434 91.8058H41.4629V80.3381H45.2434C46.284 80.3287 47.3088 80.5934 48.2147 81.1057ZM45.2434 89.6582C45.889 89.6699 46.5256 89.5049 47.0843 89.1812C47.6142 88.8725 48.0478 88.4224 48.3365 87.8813C48.6281 87.3229 48.7803 86.7023 48.7803 86.0724C48.7803 85.4425 48.6281 84.8219 48.3365 84.2635C48.0478 83.7221 47.6143 83.2717 47.0843 82.9627C46.5252 82.64 45.8889 82.4754 45.2434 82.4865H43.8055V89.6582H45.2434Z" fill="white"/>
    <path d="M52.8273 83.0998C53.3485 82.2077 54.0911 81.465 54.9833 80.9438C55.8862 80.4198 56.9116 80.1439 57.9555 80.1439C58.9994 80.1439 60.0247 80.4198 60.9276 80.9438C61.8201 81.4646 62.5629 82.2073 63.0836 83.0998C63.6076 84.0027 63.8836 85.0281 63.8836 86.072C63.8836 87.1159 63.6076 88.1412 63.0836 89.0441C62.5629 89.9369 61.8202 90.6799 60.9276 91.201C60.0245 91.7243 58.9992 92 57.9555 92C56.9117 92 55.8864 91.7243 54.9833 91.201C54.0911 90.6794 53.3485 89.9365 52.8273 89.0441C52.3033 88.1412 52.0273 87.1159 52.0273 86.072C52.0273 85.0281 52.3033 84.0027 52.8273 83.0998ZM59.7563 89.246C60.2974 88.9204 60.7432 88.4579 61.0485 87.9051C61.3607 87.3452 61.5246 86.7148 61.5246 86.0737C61.5246 85.4326 61.3607 84.8021 61.0485 84.2422C60.7429 83.6896 60.2972 83.2271 59.7563 82.9014C59.2109 82.579 58.589 82.409 57.9555 82.409C57.3219 82.409 56.7 82.579 56.1546 82.9014C55.6132 83.2258 55.1666 83.6871 54.8598 84.2388C54.5482 84.7989 54.3846 85.4293 54.3846 86.0703C54.3846 86.7112 54.5482 87.3416 54.8598 87.9017C55.1652 88.4545 55.6109 88.917 56.1521 89.2425C56.6975 89.5649 57.3194 89.7349 57.9529 89.7349C58.5864 89.7349 59.2083 89.5649 59.7537 89.2425L59.7563 89.246Z" fill="white"/>
    <path d="M67.7762 84.3274V91.8066H65.4336V80.3381H67.4533L73.3311 87.8165V80.3381H75.6729V91.8066H73.654L67.7762 84.3274Z" fill="white"/>
    <path d="M80.1885 91.2163C79.286 90.7129 78.5377 89.9731 78.024 89.0765C77.5115 88.1583 77.2417 87.1246 77.2402 86.0731C77.2387 85.0216 77.5056 83.9871 78.0155 83.0675C78.5251 82.1699 79.2711 81.4292 80.1723 80.9259C81.1113 80.3988 82.1726 80.1285 83.2492 80.1422C84.036 80.1402 84.8154 80.294 85.5424 80.5946C86.2572 80.8844 86.9077 81.3125 87.4565 81.8544C87.9933 82.3809 88.4047 83.0214 88.6602 83.7285H85.9794C85.6867 83.3091 85.2882 82.9746 84.8243 82.7591C84.3332 82.5222 83.7945 82.4007 83.2492 82.4039C82.5844 82.3923 81.9286 82.5603 81.3513 82.8903C80.8062 83.2036 80.3588 83.6622 80.059 84.2149C79.7582 84.789 79.6003 85.4272 79.599 86.0753C79.5977 86.7234 79.7529 87.3623 80.0514 87.9375C80.3493 88.4893 80.797 88.9458 81.3428 89.2545C81.9346 89.5853 82.6038 89.7523 83.2816 89.7383C84.1965 89.7383 84.9314 89.5112 85.4862 89.0568C86.041 88.6025 86.3832 87.9642 86.5127 87.1419H83.0065V84.9416H88.9328C88.9773 85.3059 88.9989 85.6726 88.9975 86.0396C88.9975 87.3208 88.7445 88.4112 88.2385 89.3107C87.7693 90.1742 87.0521 90.8774 86.1796 91.3296C85.2824 91.7834 84.2887 92.0134 83.2833 92C82.2007 92.0157 81.1332 91.7454 80.1885 91.2163Z" fill="white"/>
    <path fill-rule="evenodd" clip-rule="evenodd" d="M26.9307 53.0065L23.6127 46.4932L20.598 40.5788L10.9235 21.5902C10.3732 25.444 10.2676 29.6828 10.2676 34.2589C10.2676 45.6115 10.9209 54.9044 17.3797 61.3572C21.8553 65.8277 27.6922 67.5152 34.6349 68.126L29.9599 58.9541L26.9307 53.0065Z" fill="white"/>
    <path fill-rule="evenodd" clip-rule="evenodd" d="M16.3477 8.2851L20.5984 16.6239L23.5467 22.4088L34.6702 44.2375V0.340729C27.7071 0.974507 21.8617 2.69525 17.3775 7.17173C17.0189 7.53291 16.6731 7.90603 16.3477 8.2851Z" fill="white"/>
    <path fill-rule="evenodd" clip-rule="evenodd" d="M71.5985 7.14789C65.4915 1.06481 56.8631 0.0851852 46.3555 0V68.454C56.8784 68.3688 65.5154 67.4556 71.6189 61.3572C78.0777 54.9044 78.731 45.6175 78.731 34.2589C78.731 22.9003 78.0717 13.5913 71.5985 7.14789ZM62.7145 52.4408C61.7774 53.3779 60.5363 54.0653 58.9569 54.5705V13.9431C60.5218 14.4542 61.7681 15.1434 62.7051 16.0727C65.581 18.9367 66.1381 24.9047 66.1313 34.2521C66.1287 43.8397 65.5844 49.5778 62.7145 52.4408Z" fill="white"/>
  </g>
  <defs>
    <clipPath id="clip0_105_1427">
      <rect width="89" height="92" fill="white"/>
    </clipPath>
  </defs>
</svg>