<svg xmlns="http://www.w3.org/2000/svg" width="78" height="80" viewBox="0 0 78 80" fill="none">
  <g clip-path="url(#clip0_55_1410)">
    <path d="M2.03392 73.3281V79.8318H0V69.8593H1.75361L6.8569 76.3622V69.8593H8.89008V79.8318H7.13869L2.03392 73.3281Z" fill="#231F20"/>
    <path d="M15.8334 69.8593L20.1387 79.8318H18.0072L17.0397 77.5556H12.7907L11.8336 79.8318H9.73242L14.0221 69.8593H15.8334ZM16.2824 75.7718L14.9222 72.5422L13.5473 75.7718H16.2824Z" fill="#231F20"/>
    <path d="M26.0563 74.3119L29.2965 69.8593H31.1455V79.8318H29.1145V73.3422L26.0563 77.5422L23.0017 73.3422V79.8318H20.9678V69.8593H22.8168L26.0563 74.3119Z" fill="#231F20"/>
    <path d="M41.8619 70.5267C42.6308 70.955 43.2722 71.5803 43.7205 72.3385C44.1661 73.0986 44.401 73.9641 44.401 74.8455C44.401 75.727 44.1661 76.5925 43.7205 77.3526C43.272 78.1106 42.6306 78.7358 41.8619 79.1644C41.0752 79.6092 40.1855 79.8392 39.2821 79.8311H35.9998V69.8593H39.2821C40.1856 69.851 41.0754 70.0812 41.8619 70.5267ZM39.2821 77.9637C39.8427 77.9738 40.3953 77.8304 40.8804 77.5489C41.3406 77.2804 41.717 76.8891 41.9677 76.4185C42.2208 75.933 42.353 75.3933 42.353 74.8455C42.353 74.2978 42.2208 73.7581 41.9677 73.2726C41.717 72.8018 41.3406 72.4102 40.8804 72.1415C40.395 71.8609 39.8425 71.7177 39.2821 71.7274H38.0337V77.9637H39.2821Z" fill="#231F20"/>
    <path d="M45.8659 72.2607C46.3185 71.4849 46.9632 70.8392 47.7379 70.3859C48.5218 69.9303 49.412 69.6903 50.3184 69.6903C51.2247 69.6903 52.115 69.9303 52.8989 70.3859C53.6738 70.8387 54.3187 71.4846 54.7708 72.2607C55.2257 73.0458 55.4654 73.9374 55.4654 74.8452C55.4654 75.7529 55.2257 76.6445 54.7708 77.4296C54.3187 78.206 53.6738 78.8521 52.8989 79.3052C52.1148 79.7603 51.2246 80 50.3184 80C49.4121 80 48.522 79.7603 47.7379 79.3052C46.9632 78.8517 46.3184 78.2057 45.8659 77.4296C45.411 76.6445 45.1714 75.7529 45.1714 74.8452C45.1714 73.9374 45.411 73.0458 45.8659 72.2607ZM51.8819 77.6052C52.3517 77.3221 52.7387 76.9199 53.0039 76.4393C53.2749 75.9524 53.4172 75.4041 53.4172 74.8467C53.4172 74.2892 53.2749 73.741 53.0039 73.2541C52.7386 72.7735 52.3516 72.3714 51.8819 72.0881C51.4084 71.8079 50.8684 71.66 50.3184 71.66C49.7683 71.66 49.2284 71.8079 48.7548 72.0881C48.2847 72.3703 47.897 72.7714 47.6306 73.2511C47.3601 73.7382 47.218 74.2863 47.218 74.8437C47.218 75.4011 47.3601 75.9492 47.6306 76.4363C47.8958 76.917 48.2828 77.3191 48.7526 77.6022C49.2261 77.8825 49.7661 78.0304 50.3162 78.0304C50.8662 78.0304 51.4062 77.8825 51.8797 77.6022L51.8819 77.6052Z" fill="#231F20"/>
    <path d="M58.8454 73.3281V79.8318H56.8115V69.8593H58.5651L63.6684 76.3622V69.8593H65.7016V79.8318H63.9487L58.8454 73.3281Z" fill="#231F20"/>
    <path d="M69.623 79.3185C68.8395 78.8807 68.1898 78.2375 67.7437 77.4578C67.2987 76.6594 67.0645 75.7605 67.0632 74.8461C67.0619 73.9318 67.2936 73.0322 67.7363 72.2326C68.1788 71.452 68.8265 70.808 69.609 70.3704C70.4242 69.912 71.3456 69.6769 72.2804 69.6889C72.9635 69.6872 73.6402 69.8208 74.2715 70.0822C74.8921 70.3342 75.4568 70.7065 75.9334 71.1778C76.3994 71.6356 76.7566 72.1925 76.9784 72.8074H74.6509C74.3968 72.4427 74.0507 72.1518 73.648 71.9644C73.2216 71.7585 72.7538 71.6528 72.2804 71.6555C71.7032 71.6454 71.1339 71.7916 70.6326 72.0785C70.1593 72.351 69.7709 72.7497 69.5106 73.2304C69.2494 73.7295 69.1123 74.2845 69.1112 74.8481C69.11 75.4116 69.2448 75.9672 69.504 76.4674C69.7626 76.9472 70.1513 77.3441 70.6252 77.6126C71.139 77.9002 71.7201 78.0455 72.3085 78.0333C73.1029 78.0333 73.7409 77.8358 74.2227 77.4407C74.7044 77.0457 75.0015 76.4906 75.1139 75.7755H72.0697V73.8622H77.2151C77.2537 74.179 77.2725 74.4979 77.2713 74.817C77.2713 75.9311 77.0516 76.8793 76.6123 77.6615C76.2049 78.4123 75.5823 79.0238 74.8247 79.417C74.0457 79.8117 73.1829 80.0117 72.31 80C71.3701 80.0137 70.4432 79.7786 69.623 79.3185Z" fill="#231F20"/>
    <path fill-rule="evenodd" clip-rule="evenodd" d="M23.3827 46.0926L20.502 40.4289L17.8845 35.2859L9.48478 18.7741C9.00699 22.1252 8.91528 25.8111 8.91528 29.7904C8.91528 39.6622 9.48256 47.743 15.0903 53.3541C18.9762 57.2415 24.044 58.7089 30.0718 59.24L26.0128 51.2644L23.3827 46.0926Z" fill="#0050B5"/>
    <path fill-rule="evenodd" clip-rule="evenodd" d="M14.1938 7.20444L17.8845 14.4556L20.4443 19.4859L30.1021 38.4674V0.296295C24.0565 0.847406 18.9813 2.3437 15.088 6.2363C14.7767 6.55037 14.4764 6.87481 14.1938 7.20444Z" fill="#0050B5"/>
    <path fill-rule="evenodd" clip-rule="evenodd" d="M62.1648 6.21556C56.8626 0.925926 49.3711 0.0740741 40.248 0V59.5252C49.3844 59.4511 56.8833 58.657 62.1826 53.3541C67.7903 47.743 68.3576 39.6674 68.3576 29.7904C68.3576 19.9133 67.7851 11.8185 62.1648 6.21556ZM54.4515 45.6007C53.6379 46.4156 52.5603 47.0133 51.1891 47.4526V12.1244C52.5477 12.5689 53.6298 13.1681 54.4433 13.9763C56.9403 16.4667 57.424 21.6563 57.418 29.7844C57.4158 38.1215 56.9432 43.1111 54.4515 45.6007Z" fill="#0050B5"/>
  </g>
  <defs>
    <clipPath id="clip0_55_1410">
      <rect width="77.2727" height="80" fill="white"/>
    </clipPath>
  </defs>
</svg>