<svg xmlns="http://www.w3.org/2000/svg" width="55" height="56" viewBox="0 0 55 56" fill="none">
  <g clip-path="url(#clip0_32_685)">
    <path d="M1.42593 51.3297V55.8823H0V48.9015H1.22941L4.80719 53.4536V48.9015H6.23259V55.8823H5.00474L1.42593 51.3297Z" fill="#231F20"/>
    <path d="M11.1005 48.9015L14.1188 55.8823H12.6244L11.9462 54.2889H8.96732L8.29635 55.8823H6.82324L9.83065 48.9015H11.1005ZM11.4152 53.0403L10.4617 50.7796L9.49776 53.0403H11.4152Z" fill="#231F20"/>
    <path d="M18.2674 52.0183L20.539 48.9015H21.8353V55.8823H20.4114V51.3396L18.2674 54.2796L16.1259 51.3396V55.8823H14.7V48.9015H15.9962L18.2674 52.0183Z" fill="#231F20"/>
    <path d="M29.3481 49.3687C29.8871 49.6686 30.3368 50.1063 30.6511 50.637C30.9635 51.1691 31.1282 51.7749 31.1282 52.3919C31.1282 53.0089 30.9635 53.6148 30.6511 54.1469C30.3366 54.6775 29.887 55.1151 29.3481 55.4151C28.7965 55.7265 28.1728 55.8874 27.5395 55.8818H25.2383V48.9015H27.5395C28.1729 48.8958 28.7967 49.0569 29.3481 49.3687ZM27.5395 54.5746C27.9324 54.5817 28.3199 54.4813 28.66 54.2843C28.9826 54.0964 29.2465 53.8224 29.4222 53.493C29.5997 53.1531 29.6924 52.7754 29.6924 52.3919C29.6924 52.0085 29.5997 51.6307 29.4222 51.2908C29.2465 50.9613 28.9826 50.6872 28.66 50.4991C28.3197 50.3026 27.9323 50.2025 27.5395 50.2092H26.6642V54.5746H27.5395Z" fill="#231F20"/>
    <path d="M32.1554 50.5825C32.4727 50.0394 32.9247 49.5874 33.4678 49.2701C34.0173 48.9512 34.6415 48.7832 35.2769 48.7832C35.9123 48.7832 36.5364 48.9512 37.086 49.2701C37.6293 49.5871 38.0814 50.0392 38.3983 50.5825C38.7173 51.1321 38.8853 51.7562 38.8853 52.3916C38.8853 53.027 38.7173 53.6512 38.3983 54.2007C38.0814 54.7442 37.6293 55.1964 37.086 55.5136C36.5363 55.8322 35.9122 56 35.2769 56C34.6415 56 34.0174 55.8322 33.4678 55.5136C32.9246 55.1962 32.4726 54.744 32.1554 54.2007C31.8364 53.6512 31.6685 53.027 31.6685 52.3916C31.6685 51.7562 31.8364 51.1321 32.1554 50.5825ZM36.373 54.3236C36.7024 54.1255 36.9737 53.8439 37.1596 53.5075C37.3496 53.1666 37.4494 52.7829 37.4494 52.3926C37.4494 52.0024 37.3496 51.6187 37.1596 51.2778C36.9736 50.9415 36.7023 50.66 36.373 50.4617C36.041 50.2655 35.6625 50.162 35.2769 50.162C34.8912 50.162 34.5127 50.2655 34.1807 50.4617C33.8511 50.6592 33.5793 50.94 33.3926 51.2758C33.2029 51.6167 33.1033 52.0004 33.1033 52.3906C33.1033 52.7807 33.2029 53.1644 33.3926 53.5054C33.5784 53.8419 33.8498 54.1234 34.1792 54.3215C34.5111 54.5177 34.8897 54.6212 35.2753 54.6212C35.6609 54.6212 36.0395 54.5177 36.3715 54.3215L36.373 54.3236Z" fill="#231F20"/>
    <path d="M41.2548 51.3297V55.8823H39.8289V48.9015H41.0583L44.636 53.4536V48.9015H46.0615V55.8823H44.8326L41.2548 51.3297Z" fill="#231F20"/>
    <path d="M48.8107 55.5229C48.2614 55.2165 47.8059 54.7662 47.4932 54.2204C47.1812 53.6615 47.017 53.0323 47.0161 52.3922C47.0152 51.7522 47.1776 51.1225 47.488 50.5628C47.7982 50.0164 48.2523 49.5655 48.8009 49.2592C49.3724 48.9383 50.0184 48.7738 50.6738 48.7822C51.1527 48.781 51.627 48.8745 52.0696 49.0575C52.5047 49.2339 52.9006 49.4945 53.2347 49.8244C53.5615 50.1448 53.8119 50.5347 53.9674 50.9651H52.3356C52.1575 50.7098 51.9149 50.5062 51.6325 50.3751C51.3336 50.2309 51.0056 50.1569 50.6738 50.1588C50.269 50.1518 49.8699 50.254 49.5185 50.4549C49.1867 50.6456 48.9144 50.9248 48.7319 51.2612C48.5488 51.6106 48.4527 51.9991 48.4519 52.3936C48.4511 52.7881 48.5455 53.177 48.7272 53.5271C48.9086 53.863 49.1811 54.1409 49.5133 54.3288C49.8735 54.5301 50.2809 54.6318 50.6935 54.6233C51.2504 54.6233 51.6977 54.485 52.0354 54.2085C52.3731 53.9319 52.5814 53.5434 52.6602 53.0428H50.526V51.7035H54.1333C54.1604 51.9252 54.1736 52.1485 54.1727 52.3719C54.1727 53.1517 54.0187 53.8154 53.7107 54.363C53.4251 54.8886 52.9886 55.3166 52.4575 55.5919C51.9113 55.8681 51.3065 56.0081 50.6945 55.9999C50.0355 56.0095 49.3857 55.845 48.8107 55.5229Z" fill="#231F20"/>
    <path fill-rule="evenodd" clip-rule="evenodd" d="M16.393 32.2648L14.3734 28.3002L12.5383 24.7001L6.6495 13.1418C6.31454 15.4876 6.25024 18.0678 6.25024 20.8533C6.25024 27.7636 6.64795 33.4201 10.5794 37.3478C13.3037 40.069 16.8565 41.0962 21.0825 41.468L18.2368 35.8851L16.393 32.2648Z" fill="#0050B5"/>
    <path fill-rule="evenodd" clip-rule="evenodd" d="M9.95093 5.0431L12.5383 10.1189L14.3329 13.6401L21.1037 26.9272V0.207397C16.8654 0.593175 13.3073 1.64058 10.5778 4.3654C10.3595 4.58525 10.149 4.81236 9.95093 5.0431Z" fill="#0050B5"/>
    <path fill-rule="evenodd" clip-rule="evenodd" d="M43.5821 4.35089C39.8648 0.648148 34.6127 0.0518519 28.2168 0V41.6676C34.6221 41.6158 39.8793 41.0599 43.5945 37.3479C47.5259 33.4201 47.9236 27.7672 47.9236 20.8533C47.9236 13.9393 47.5223 8.27296 43.5821 4.35089ZM38.1744 31.9205C37.6041 32.4909 36.8486 32.9093 35.8872 33.2168V8.48711C36.8398 8.79822 37.5984 9.2177 38.1687 9.78341C39.9192 11.5267 40.2584 15.1594 40.2542 20.8491C40.2527 26.685 39.9213 30.1778 38.1744 31.9205Z" fill="#0050B5"/>
  </g>
  <defs>
    <clipPath id="clip0_32_685">
      <rect width="54.1738" height="56" fill="white"/>
    </clipPath>
  </defs>
</svg>