<svg width="10" height="14" viewBox="0 0 10 14" fill="none" xmlns="http://www.w3.org/2000/svg">
<path d="M3.21516 6.76376C3.28954 6.32626 3.36392 5.88876 3.43829 5.45126C3.72267 3.82813 3.99829 2.20939 4.28267 0.58626C4.30451 0.415396 4.39015 0.259102 4.52242 0.148747C4.65468 0.0383924 4.82378 -0.0178664 4.99579 -0.00874662H8.90266C9.00872 -0.0125512 9.11425 0.00796916 9.21116 0.0512281C9.30807 0.0944869 9.39379 0.159338 9.46177 0.240832C9.52975 0.322325 9.57819 0.41829 9.60337 0.521386C9.62855 0.624481 9.62981 0.731969 9.60705 0.835625C9.25704 2.87729 8.90559 4.91896 8.55267 6.96063C8.54831 7.02764 8.54831 7.09487 8.55267 7.16188V13.65C8.55267 13.9344 8.48704 14 8.19829 14H7.64704C7.61412 14.0044 7.58065 14.0016 7.54888 13.992C7.51711 13.9823 7.48779 13.9659 7.4629 13.9439C7.43801 13.922 7.41814 13.8949 7.40462 13.8645C7.3911 13.8342 7.38425 13.8013 7.38454 13.7681C7.21829 12.4994 7.05204 11.235 6.89016 9.96626C6.82891 9.52876 6.77204 9.09126 6.71516 8.65376H6.19017L6.04579 9.76064C5.90141 10.85 5.76141 11.9481 5.60829 13.0244C5.57766 13.2694 5.54704 13.5144 5.51204 13.7594C5.47704 14.0044 5.41141 14.0087 5.23641 14.0087H4.62391C4.42266 14.0087 4.34392 13.9169 4.34392 13.7025V8.64064H2.21766C2.16079 9.07814 2.09954 9.51564 2.04267 9.95314C1.88954 11.1169 1.73642 12.285 1.60517 13.4531L1.56579 13.755C1.56589 13.787 1.55935 13.8186 1.54662 13.848C1.53389 13.8773 1.51523 13.9037 1.49181 13.9255C1.46839 13.9473 1.44071 13.9639 1.41053 13.9745C1.38035 13.9851 1.34831 13.9893 1.31642 13.9869H0.642662C0.609818 13.9895 0.576801 13.985 0.545877 13.9736C0.514954 13.9623 0.486865 13.9443 0.463566 13.921C0.440266 13.8977 0.422313 13.8696 0.410934 13.8387C0.399556 13.8077 0.395022 13.7747 0.397663 13.7419V7.78751C0.384742 7.65004 0.40239 7.51142 0.449333 7.38157C0.496277 7.25172 0.571364 7.13387 0.669205 7.03645C0.767045 6.93903 0.885214 6.86445 1.01526 6.81806C1.14531 6.77167 1.284 6.75461 1.42141 6.76812L3.21516 6.76376ZM7.17891 6.76376L8.26392 0.485631H5.05705C4.82517 0.485631 4.76392 0.542511 4.72454 0.778761L3.84954 5.95876C3.80142 6.22563 3.75767 6.49688 3.70954 6.77688L7.17891 6.76376ZM8.0758 8.16375V7.10063C8.07144 7.04238 8.07144 6.98388 8.0758 6.92563C8.42871 4.88396 8.78162 2.8423 9.13454 0.800631C9.16516 0.621256 9.09954 0.49876 8.95516 0.476885C8.81079 0.45501 8.71892 0.542505 8.68829 0.717505C8.59642 1.2425 8.50892 1.76751 8.41704 2.29689L7.60329 7.00001C7.57266 7.17501 7.49829 7.23625 7.31454 7.23625H5.43767L5.52954 8.16375H8.0758ZM0.848287 8.16375H5.04392V7.76126C5.05165 7.69062 5.04334 7.61916 5.01962 7.55217C4.99591 7.48519 4.95738 7.42442 4.90692 7.37439C4.85647 7.32435 4.79538 7.28634 4.7282 7.26318C4.66102 7.24003 4.58949 7.23232 4.51892 7.24063H1.32954C1.26623 7.23884 1.20321 7.24992 1.1443 7.2732C1.08539 7.29647 1.03183 7.33146 0.986835 7.37604C0.941844 7.42062 0.906361 7.47388 0.882547 7.53257C0.858734 7.59127 0.847078 7.65418 0.848287 7.7175C0.826412 7.85313 0.848287 7.99751 0.848287 8.155V8.16375ZM1.10642 13.5363L1.74517 8.64938H0.870171V13.5363H1.10642ZM5.07454 13.5363L5.70892 8.65376H4.83392V13.5231L5.07454 13.5363ZM7.17891 8.65376L7.82642 13.5231H8.08016V8.64064L7.17891 8.65376Z" fill="black"/>
</svg>
