<svg width="10" height="14" viewBox="0 0 10 14" fill="none" xmlns="http://www.w3.org/2000/svg">
<path d="M8.03602 8.07188C8.40352 8.40438 8.75351 8.72375 9.10789 9.03875C9.15173 9.07146 9.18672 9.1146 9.20964 9.16427C9.23256 9.21393 9.2427 9.26854 9.23914 9.32312C9.2282 9.49503 9.2282 9.66746 9.23914 9.83937C9.24365 9.8941 9.23087 9.94887 9.20261 9.99596C9.17436 10.043 9.13205 10.0801 9.08164 10.1019L5.92289 11.935C5.20976 12.3725 4.49227 12.7619 3.78352 13.1819C3.73317 13.222 3.6707 13.2438 3.60633 13.2438C3.54196 13.2438 3.47949 13.222 3.42914 13.1819C3.22789 13.0419 3.01352 12.9194 2.77289 12.7706C2.77289 12.9413 2.77289 13.0856 2.77289 13.2081C2.77883 13.2608 2.7681 13.3141 2.7422 13.3604C2.7163 13.4067 2.67654 13.4437 2.62851 13.4662C2.34851 13.615 2.07727 13.7769 1.80602 13.9388C1.76696 13.9662 1.72034 13.981 1.67258 13.981C1.62481 13.981 1.57821 13.9662 1.53914 13.9388C1.32477 13.8075 1.10165 13.6806 0.887271 13.5581C0.845067 13.5358 0.810463 13.5014 0.78787 13.4593C0.765276 13.4172 0.75571 13.3694 0.760392 13.3219C0.760392 9.87146 0.751643 6.41667 0.734143 2.9575C0.730153 2.90509 0.742262 2.85271 0.768844 2.80737C0.795425 2.76202 0.835211 2.72587 0.882892 2.70375C1.15852 2.55062 1.43414 2.38875 1.70539 2.22687C1.74446 2.19938 1.79106 2.18463 1.83883 2.18463C1.8866 2.18463 1.9332 2.19938 1.97226 2.22687C2.18226 2.35375 2.40977 2.47625 2.61102 2.59437C2.65595 2.61646 2.69304 2.65179 2.71729 2.69559C2.74153 2.73939 2.75178 2.78957 2.74665 2.83937C2.74665 3.03187 2.74665 3.22438 2.74665 3.43876L2.89539 3.36C3.41164 3.05812 3.92789 2.75625 4.44851 2.45875C4.48709 2.44218 4.51936 2.41372 4.54061 2.37752C4.56186 2.34131 4.57099 2.29926 4.56665 2.2575C4.56665 1.75438 4.56665 1.25125 4.56665 0.748121C4.56229 0.696195 4.57374 0.64417 4.59951 0.598879C4.62527 0.553588 4.66415 0.517158 4.71102 0.494377C4.98664 0.345627 5.25352 0.188124 5.52039 0.0262489C5.563 -0.00469794 5.6143 -0.0213623 5.66695 -0.0213623C5.71961 -0.0213623 5.77091 -0.00469794 5.81351 0.0262489C6.01039 0.144374 6.21165 0.262503 6.4129 0.371878C6.46602 0.394191 6.51048 0.433095 6.53966 0.482775C6.56883 0.532455 6.58116 0.590245 6.57477 0.647505C6.57477 0.866255 6.57477 1.085 6.57477 1.29938C6.57197 1.34367 6.58007 1.38796 6.59838 1.42839C6.61668 1.46882 6.64463 1.50414 6.67977 1.53125L9.12977 3.71875C9.17644 3.75314 9.21345 3.79901 9.23721 3.85189C9.26097 3.90477 9.27067 3.96289 9.26539 4.02063C9.25664 4.18092 9.25664 4.34158 9.26539 4.50188C9.27123 4.56188 9.25785 4.62218 9.22718 4.67409C9.19651 4.72599 9.15014 4.7668 9.09476 4.79063C8.79289 4.95688 8.49976 5.13187 8.21976 5.3025L8.06665 5.39438C8.42102 5.71376 8.76227 6.02875 9.11227 6.33063C9.16753 6.37048 9.21122 6.42427 9.23889 6.48653C9.26656 6.54879 9.27722 6.61728 9.26977 6.685C9.25552 6.83048 9.25552 6.97701 9.26977 7.1225C9.27912 7.192 9.26532 7.26264 9.23053 7.32352C9.19574 7.3844 9.14189 7.43215 9.07727 7.45938C8.71852 7.66938 8.38602 7.86626 8.03602 8.07188ZM1.14539 4.7425C1.19114 4.76856 1.23499 4.7978 1.27664 4.83C2.02476 5.49938 2.7729 6.16876 3.51227 6.84251C3.52763 6.86225 3.54678 6.87872 3.56859 6.89097C3.5904 6.90322 3.61442 6.91099 3.63927 6.91384C3.66412 6.91669 3.6893 6.91457 3.71332 6.90758C3.73733 6.90059 3.7597 6.88887 3.77914 6.87312L6.10226 5.51688C6.19414 5.46438 6.29039 5.41626 6.36039 5.51688C6.43039 5.61751 6.33851 5.70062 6.25101 5.75312L6.21164 5.77501L3.9804 7.08751C3.7354 7.22751 3.7179 7.2625 3.7879 7.56L3.93227 7.48125L8.77102 4.66375C8.97227 4.55 9.00727 4.45375 8.92852 4.22625L8.05352 4.73813C7.95727 4.79063 7.85226 4.85188 7.78226 4.73813C7.71226 4.62438 7.80852 4.55438 7.9004 4.50188L8.70977 4.03375L8.84976 3.94188L8.71414 3.815C7.97914 3.15438 7.24414 2.5025 6.52664 1.83313C6.51057 1.81357 6.4908 1.79738 6.46847 1.78547C6.44613 1.77357 6.42166 1.76618 6.39646 1.76374C6.37127 1.7613 6.34583 1.76385 6.32163 1.77126C6.29742 1.77866 6.27491 1.79077 6.25539 1.80688C4.87289 2.61625 3.48164 3.42125 2.09476 4.22625L1.14539 4.7425ZM1.14539 7.3675L3.49477 9.48063C3.51045 9.50005 3.52984 9.51614 3.5518 9.52799C3.57377 9.53984 3.59786 9.5472 3.6227 9.54964C3.64754 9.55209 3.67261 9.54956 3.69647 9.54222C3.72032 9.53488 3.74249 9.52287 3.76165 9.50688C5.13102 8.70625 6.5004 7.91438 7.87415 7.11813L8.83664 6.55375C8.51726 6.265 8.20664 5.99375 7.90914 5.71375C7.87368 5.66801 7.82156 5.63819 7.76416 5.63081C7.70676 5.62343 7.64877 5.63909 7.6029 5.67438C6.32977 6.4225 5.05227 7.16188 3.78352 7.90563C3.73308 7.94162 3.67267 7.96097 3.61071 7.96097C3.54875 7.96097 3.48833 7.94162 3.43789 7.90563C2.95664 7.59938 2.47101 7.30188 1.98539 7.00438C1.96508 6.98882 1.94175 6.97767 1.91689 6.97164C1.89203 6.96561 1.86619 6.96483 1.84102 6.96937C1.62664 7.09187 1.40352 7.2275 1.15852 7.3675H1.14539ZM3.61289 12.2281L8.82789 9.19626C8.50414 8.90313 8.18915 8.6275 7.88727 8.34313C7.8718 8.32163 7.85206 8.30356 7.82929 8.29004C7.80651 8.27652 7.78119 8.26784 7.7549 8.26455C7.72862 8.26127 7.70195 8.26345 7.67654 8.27095C7.65114 8.27845 7.62755 8.29109 7.60726 8.30812C6.32976 9.05625 5.0479 9.79563 3.77477 10.5438C3.72312 10.5828 3.66014 10.6039 3.5954 10.6039C3.53065 10.6039 3.46767 10.5828 3.41602 10.5438C2.94352 10.2419 2.46227 9.94875 1.98102 9.66875C1.95596 9.65272 1.92766 9.64245 1.89816 9.63867C1.86866 9.63489 1.83868 9.63769 1.81039 9.64688C1.58726 9.76501 1.37289 9.89625 1.14102 10.0319L3.61289 12.2281ZM3.75727 12.8406C3.8058 12.8195 3.85262 12.7947 3.89727 12.7662L8.70977 9.96188C8.94602 9.82188 8.95914 9.79563 8.89789 9.48938L8.67477 9.61625C7.10852 10.5263 5.55102 11.4406 3.97602 12.3375C3.88467 12.3729 3.80937 12.4405 3.76427 12.5275C3.71916 12.6145 3.70735 12.7149 3.73102 12.81C3.73102 12.81 3.76164 12.8188 3.77039 12.8538L3.75727 12.8406ZM3.75727 10.2156L3.91914 10.1325L5.34102 9.30563C6.49164 8.63626 7.64226 7.9625 8.79727 7.2975C8.85214 7.27533 8.89774 7.23499 8.92641 7.18322C8.95509 7.13145 8.9651 7.0714 8.95477 7.01312C8.95035 6.95634 8.95035 6.8993 8.95477 6.84251L8.75351 6.95625C8.27226 7.23187 7.79539 7.51187 7.31851 7.79187L3.85789 9.8C3.82327 9.81276 3.79424 9.83728 3.77586 9.86926C3.75747 9.90125 3.75089 9.93867 3.75727 9.97501C3.76218 10.0595 3.76218 10.1442 3.75727 10.2288V10.2156ZM3.44227 12.8406C3.47126 12.742 3.46963 12.637 3.4376 12.5393C3.40557 12.4416 3.34465 12.356 3.26289 12.2938C2.64164 11.7644 2.04227 11.2088 1.43415 10.6663C1.31602 10.5569 1.19789 10.4519 1.04476 10.3206C1.04476 10.6487 1.04476 10.9375 1.04476 11.2306C1.03972 11.2714 1.04757 11.3127 1.06718 11.3488C1.08679 11.3849 1.11719 11.4139 1.15414 11.4319C1.87601 11.8694 2.59351 12.3069 3.31101 12.7706L3.44227 12.8406ZM1.07539 5.04001C1.07539 5.35938 1.07539 5.64813 1.07539 5.94126C1.07115 5.98415 1.08022 6.02731 1.10135 6.06488C1.12248 6.10245 1.15465 6.1326 1.19351 6.15125C1.90518 6.58875 2.6154 7.02625 3.32415 7.46375L3.46852 7.54688C3.49832 7.45476 3.49965 7.3558 3.47234 7.26292C3.44502 7.17004 3.39032 7.08756 3.31539 7.02625C2.59352 6.39625 1.88914 5.75313 1.18039 5.11438L1.07539 5.04001ZM3.44227 10.1894H3.47726C3.44664 10.0538 3.53851 9.90062 3.39414 9.77375L1.18039 7.78751C1.14403 7.75908 1.10605 7.73278 1.06665 7.70875C1.06665 8.02812 1.06665 8.31687 1.06665 8.61C1.06347 8.64935 1.0722 8.68876 1.09171 8.72308C1.11121 8.75741 1.14059 8.78508 1.17602 8.8025L2.75539 9.77813L3.44227 10.1894ZM1.07539 11.7119C1.07539 12.2544 1.07539 12.7663 1.07539 13.2781C1.07536 13.2919 1.07804 13.3056 1.0833 13.3184C1.08855 13.3311 1.09628 13.3427 1.10602 13.3525L1.54352 13.6063C1.54352 13.0725 1.54352 12.5694 1.54352 12.0663C1.54181 12.0458 1.53587 12.0259 1.52608 12.0078C1.5163 11.9897 1.50286 11.9739 1.48664 11.9612C1.34227 11.8781 1.21539 11.8038 1.07539 11.7119ZM1.83664 13.5931C2.49726 13.2956 2.51039 13.2781 2.49727 12.7181C2.50179 12.698 2.50179 12.677 2.49727 12.6569C2.49056 12.6292 2.47702 12.6036 2.45789 12.5825C2.26102 12.4556 2.05977 12.3331 1.84102 12.2019L1.83664 13.5931ZM4.89914 2.24C5.04789 2.1525 5.17914 2.08251 5.29726 2.00376C5.31519 1.98851 5.32985 1.9698 5.34038 1.94875C5.3509 1.9277 5.35707 1.90475 5.35852 1.88126C5.35852 1.69313 5.35852 1.50063 5.35852 1.3125C5.35852 1.27313 5.35851 1.22063 5.32351 1.20312C5.18789 1.11563 5.04789 1.03688 4.88601 0.949381L4.89914 2.24ZM1.07977 4.45813C1.22415 4.375 1.34665 4.30938 1.46477 4.23063C1.48084 4.21375 1.49336 4.19383 1.50162 4.17204C1.50989 4.15026 1.51372 4.12704 1.51289 4.10375C1.51289 3.89813 1.51289 3.6925 1.51289 3.48688C1.51392 3.46761 1.51095 3.44833 1.50417 3.43027C1.4974 3.4122 1.48696 3.39572 1.47352 3.38188L1.06227 3.14125L1.07977 4.45813ZM1.8454 4.02063L2.38789 3.66625C2.40129 3.65654 2.4125 3.64412 2.42079 3.6298C2.42908 3.61548 2.43426 3.59958 2.43601 3.58313C2.43601 3.40813 2.43601 3.23312 2.43601 3.03187L1.78414 3.41687C1.78414 3.60062 1.78414 3.78876 1.78414 3.97251C1.79727 3.98126 1.80164 3.98562 1.81039 4.01625L1.8454 4.02063ZM6.30789 0.835627L5.69101 1.19875C5.67924 1.20735 5.66959 1.21852 5.66277 1.2314C5.65595 1.24429 5.65214 1.25856 5.65164 1.27313C5.65164 1.43938 5.65164 1.61001 5.65164 1.81126L6.27289 1.44812C6.28466 1.43952 6.29431 1.42835 6.30113 1.41547C6.30795 1.40258 6.31177 1.38833 6.31227 1.37376C6.27727 1.20313 6.27289 1.04125 6.27289 0.831247L6.30789 0.835627ZM6.16352 0.581882L5.76101 0.350008C5.74595 0.342972 5.72952 0.339327 5.71289 0.339327C5.69627 0.339327 5.67983 0.342972 5.66476 0.350008L5.03476 0.708748C5.18789 0.800623 5.31914 0.879381 5.45039 0.949381C5.48415 0.962559 5.52163 0.962559 5.55539 0.949381C5.72164 0.818131 5.91414 0.704378 6.12851 0.577503L6.16352 0.581882ZM1.21976 2.90063C1.36414 2.98375 1.48664 3.05813 1.60914 3.12376C1.63977 3.12376 1.68789 3.16313 1.71414 3.15001C1.91976 3.03626 2.12539 2.91375 2.34414 2.78687L1.94601 2.555C1.92872 2.54766 1.91012 2.54388 1.89133 2.54388C1.87253 2.54388 1.85394 2.54766 1.83664 2.555C1.60039 2.65125 1.40352 2.79125 1.18477 2.89625L1.21976 2.90063ZM1.07977 7.10063L1.64852 6.76813L1.07977 6.41813V7.10063ZM1.63977 9.41063L1.09726 9.07375V9.72563L1.63977 9.41063Z" fill="black"/>
</svg>
