<svg width="16" height="16" viewBox="0 0 16 16" fill="none" xmlns="http://www.w3.org/2000/svg">
<g clip-path="url(#clip0_45_1311)">
<path d="M11.8748 13.06V2.92999C11.8098 3.01499 11.7648 3.06499 11.7298 3.11499L10.4298 4.84C10.3599 4.9447 10.2598 5.02567 10.1428 5.07211C10.0258 5.11856 9.89744 5.12829 9.77477 5.10001C9.65634 5.08069 9.54605 5.02739 9.4573 4.94662C9.36855 4.86586 9.30514 4.76108 9.27477 4.64499C9.24188 4.53208 9.2384 4.41264 9.26465 4.298C9.2909 4.18337 9.34602 4.07734 9.42477 3.98999L11.7898 0.834991C11.8748 0.719991 11.9548 0.594985 12.0448 0.484985C12.1063 0.403206 12.1859 0.33687 12.2775 0.291168C12.369 0.245467 12.47 0.221649 12.5723 0.221649C12.6746 0.221649 12.7755 0.245467 12.8671 0.291168C12.9586 0.33687 13.0383 0.403206 13.0998 0.484985C13.9748 1.65499 14.8548 2.81999 15.7148 3.98499C15.816 4.13207 15.87 4.30645 15.8698 4.48499C15.8679 4.61832 15.8217 4.74722 15.7384 4.85135C15.6551 4.95547 15.5394 5.0289 15.4098 5.06C15.2804 5.10336 15.1406 5.10391 15.0109 5.06158C14.8812 5.01926 14.7686 4.93629 14.6898 4.82498C14.3248 4.34998 13.9698 3.86501 13.6098 3.38501L13.2448 2.91V13.01C13.2998 12.95 13.3398 12.91 13.3748 12.865C13.8098 12.285 14.2448 11.7 14.6848 11.12C14.766 11.0072 14.8809 10.9231 15.0131 10.88C15.1452 10.8368 15.2876 10.8368 15.4198 10.88C15.548 10.914 15.6615 10.9891 15.7428 11.0939C15.8241 11.1987 15.8687 11.3274 15.8698 11.46C15.8604 11.6392 15.8016 11.8123 15.6998 11.96C14.9198 13.04 14.1548 14.09 13.3598 15.09L13.1198 15.425C13.0595 15.5211 12.9758 15.6003 12.8765 15.6552C12.7773 15.71 12.6657 15.7388 12.5523 15.7388C12.4388 15.7388 12.3273 15.71 12.228 15.6552C12.1288 15.6003 12.0451 15.5211 11.9848 15.425L10.1998 13.035L9.38977 11.955C9.33051 11.8848 9.28619 11.8033 9.25953 11.7154C9.23287 11.6275 9.22443 11.5351 9.23472 11.4438C9.24502 11.3525 9.27384 11.2643 9.31941 11.1846C9.36499 11.1048 9.42636 11.0352 9.49977 10.98C9.57248 10.9265 9.65533 10.8883 9.74327 10.8678C9.83122 10.8473 9.92242 10.8449 10.0113 10.8608C10.1002 10.8767 10.1849 10.9106 10.2603 10.9603C10.3357 11.01 10.4002 11.0745 10.4498 11.15L11.7698 12.91L11.8748 13.06Z" fill="black"/>
<path d="M3.73 16C3.21287 15.9913 2.69682 15.9495 2.185 15.875C1.60571 15.746 1.08796 15.4228 0.717774 14.9589C0.347586 14.495 0.147234 13.9185 0.150002 13.325C0.150002 12.71 0.150002 12.095 0.150002 11.48C0.135705 10.805 0.382517 10.1506 0.838971 9.65314C1.29543 9.15569 1.92629 8.85365 2.6 8.81C3.38689 8.74249 4.17811 8.74249 4.965 8.81C5.5836 8.85716 6.16343 9.12954 6.59468 9.57553C7.02593 10.0215 7.27865 10.6102 7.305 11.23C7.37001 12.0354 7.37001 12.8446 7.305 13.65C7.23225 14.2685 6.93988 14.8404 6.48107 15.2616C6.02226 15.6828 5.42751 15.9253 4.805 15.945C4.46 15.945 4.11 15.945 3.765 15.945L3.73 16ZM1.48 12.37C1.48 12.68 1.48 12.995 1.48 13.305C1.47934 13.4798 1.51329 13.6531 1.5799 13.8148C1.6465 13.9764 1.74444 14.1233 1.86808 14.2469C1.99171 14.3706 2.13859 14.4685 2.30025 14.5351C2.46192 14.6017 2.63516 14.6357 2.81 14.635H4.655C4.82877 14.637 5.00121 14.6046 5.16245 14.5398C5.32368 14.475 5.47052 14.3789 5.59456 14.2572C5.71859 14.1355 5.81737 13.9905 5.88523 13.8305C5.95309 13.6706 5.9887 13.4988 5.99 13.325C5.99 12.6916 5.99 12.0566 5.99 11.42C5.98608 11.0756 5.84718 10.7464 5.60315 10.5033C5.35912 10.2602 5.02945 10.1226 4.685 10.12C4.04834 10.12 3.41334 10.12 2.78 10.12C2.42946 10.1253 2.09529 10.2693 1.85069 10.5204C1.60609 10.7716 1.47099 11.1094 1.475 11.46C1.475 11.76 1.48 12.09 1.48 12.37Z" fill="black"/>
<path d="M3.74492 1.01553e-05C4.24656 -0.00441991 4.74786 0.0273303 5.24492 0.0950114C5.80214 0.198878 6.3086 0.486143 6.68371 0.911082C7.05881 1.33602 7.28101 1.87422 7.31492 2.44001C7.38242 3.21855 7.38242 4.00147 7.31492 4.78001C7.27988 5.40636 7.01429 5.9976 6.56932 6.4398C6.12435 6.882 5.53148 7.14387 4.90492 7.175C4.09132 7.2425 3.27352 7.2425 2.45992 7.175C1.84187 7.10213 1.27058 6.80957 0.850224 6.35066C0.429863 5.89175 0.188424 5.29706 0.169922 4.675C0.169922 3.99166 0.169922 3.30667 0.169922 2.62001C0.193468 1.95073 0.469538 1.3152 0.942616 0.841197C1.41569 0.367191 2.0507 0.0898698 2.71992 0.0650126C3.06992 0.0650126 3.41492 0.0650126 3.75992 0.0650126L3.74492 1.01553e-05ZM1.47992 3.62001C1.47992 3.92501 1.47992 4.22501 1.47992 4.53001C1.47591 4.88057 1.61101 5.21842 1.85561 5.46958C2.10021 5.72074 2.43437 5.86474 2.78492 5.87001C3.41992 5.87001 4.05492 5.87001 4.69492 5.87001C5.0354 5.86874 5.36179 5.73396 5.60394 5.49461C5.8461 5.25526 5.98469 4.93045 5.98992 4.59001C6.00992 3.94001 6.00992 3.28999 5.98992 2.63999C5.98733 2.46776 5.95066 2.29775 5.88203 2.13975C5.8134 1.98175 5.71418 1.83889 5.59007 1.71943C5.46596 1.59997 5.31943 1.50628 5.15893 1.44374C4.99843 1.38119 4.82713 1.35104 4.65492 1.35502H2.78492C2.4383 1.35764 2.10661 1.49648 1.8615 1.74159C1.6164 1.9867 1.47754 2.31839 1.47492 2.66502C1.47492 2.98002 1.47992 3.30001 1.47992 3.62001Z" fill="black"/>
</g>
<defs>
<clipPath id="clip0_45_1311">
<rect width="16" height="16" fill="white"/>
</clipPath>
</defs>
</svg>
