<svg width="14" height="14" viewBox="0 0 14 14" fill="none" xmlns="http://www.w3.org/2000/svg">
<path d="M7.9015 6.68499V12.7663C7.9015 13.0331 7.84025 13.0944 7.569 13.0944H6.39651C6.16901 13.0944 6.099 13.02 6.099 12.7881V6.64125C6.05963 6.72438 6.03776 6.76374 6.02026 6.80749L3.64463 12.845C3.55275 13.0725 3.52213 13.0944 3.2815 13.0944H2.109C1.8465 13.0944 1.75463 12.9588 1.85963 12.7094C2.87171 10.3235 3.88379 7.94063 4.89588 5.56063C4.91653 5.51685 4.92725 5.46903 4.92725 5.42062C4.92725 5.37222 4.91653 5.3244 4.89588 5.28062C4.74275 4.90875 4.58525 4.53687 4.45838 4.15624C4.44329 4.10315 4.41009 4.05702 4.36454 4.02585C4.31898 3.99469 4.26396 3.98046 4.20901 3.98563C3.21916 3.94573 2.23359 3.83313 1.26025 3.64874C0.971904 3.58353 0.68833 3.49875 0.411503 3.395C0.279629 3.36079 0.165276 3.27858 0.0908279 3.16448C0.01638 3.05039 -0.0128004 2.9126 0.00900355 2.77812C0.0264951 2.55826 0.0264951 2.33735 0.00900355 2.11749C0.00183617 2.02577 0.0237705 1.93412 0.0716819 1.85558C0.119593 1.77703 0.191043 1.71559 0.275879 1.67999C0.550935 1.56086 0.834675 1.46287 1.12463 1.38687C1.97929 1.20695 2.84673 1.09431 3.719 1.05C5.1744 0.936691 6.63476 0.900182 8.094 0.940629C9.45243 0.95729 10.8084 1.05957 12.154 1.24687C12.5696 1.30812 12.9765 1.42187 13.3878 1.5225C13.4999 1.55674 13.6084 1.60218 13.7115 1.65812C13.8097 1.69991 13.8917 1.77234 13.9454 1.8646C13.999 1.95686 14.0213 2.064 14.009 2.17C13.9959 2.40461 13.9959 2.63976 14.009 2.87437C14.0233 2.97326 14.0033 3.07408 13.9524 3.16004C13.9014 3.246 13.8226 3.31194 13.729 3.34688C13.4178 3.4793 13.0958 3.58468 12.7665 3.66187C11.7943 3.85415 10.8082 3.96828 9.81775 4.00313C9.76166 3.99799 9.70555 4.01267 9.65918 4.04465C9.61281 4.07663 9.57913 4.12387 9.564 4.17813C9.41963 4.56313 9.25775 4.93937 9.1265 5.31999C9.10017 5.39654 9.10017 5.4797 9.1265 5.55625C10.1298 7.9275 11.1346 10.2988 12.1409 12.67C12.1409 12.7138 12.1803 12.7531 12.1934 12.7969C12.2102 12.8303 12.218 12.8675 12.216 12.9049C12.214 12.9423 12.2022 12.9785 12.1819 13.0099C12.1615 13.0413 12.1333 13.0669 12.1 13.084C12.0667 13.1011 12.0295 13.1092 11.9921 13.1075C11.5546 13.1075 11.0821 13.1075 10.6271 13.1075C10.5003 13.1075 10.4434 13.0156 10.3996 12.9106C10.1313 12.2252 9.8615 11.5398 9.59025 10.8544L8.00213 6.82062C7.98729 6.7787 7.96975 6.73778 7.94963 6.69812L7.9015 6.68499ZM13.5103 2.07812V2.02124C13.4071 1.97351 13.3003 1.93402 13.1909 1.90312C12.6178 1.79375 12.049 1.65375 11.4759 1.60125C10.3734 1.49625 9.26796 1.42333 8.15963 1.3825C6.28138 1.31089 4.4004 1.38402 2.53338 1.60125C1.94713 1.67125 1.36963 1.81125 0.78338 1.925C0.685561 1.95486 0.590429 1.99291 0.499001 2.03875C0.559683 2.07208 0.622536 2.10132 0.68713 2.12625C0.94088 2.19188 1.19463 2.27499 1.44838 2.32312C2.73543 2.54166 4.03692 2.66451 5.34213 2.69063C6.99479 2.75118 8.64951 2.72196 10.299 2.60312C11.162 2.55232 12.0202 2.43975 12.8671 2.26625C13.0728 2.21375 13.274 2.13937 13.5103 2.07812ZM4.91775 4.05125C4.92844 4.08854 4.94159 4.12508 4.95713 4.16062C5.09713 4.51062 5.23275 4.86937 5.39463 5.215C5.4248 5.28012 5.44043 5.35104 5.44043 5.42281C5.44043 5.49459 5.4248 5.56549 5.39463 5.63062C4.41754 7.91728 3.44629 10.2054 2.48088 12.495C2.48088 12.5387 2.44588 12.5869 2.42401 12.6438C2.67338 12.6438 2.90088 12.6438 3.124 12.6438C3.14728 12.6482 3.17121 12.6479 3.1944 12.6431C3.21758 12.6382 3.23957 12.6288 3.2591 12.6153C3.27862 12.6019 3.2953 12.5848 3.30816 12.5648C3.32101 12.5449 3.3298 12.5227 3.33401 12.4994C4.23817 10.1981 5.14526 7.89541 6.05526 5.59124C6.10874 5.47198 6.12841 5.34031 6.11213 5.21062C6.05525 4.82999 6.0115 4.44937 5.96338 4.05125H4.91775ZM8.09838 4.05125C8.04588 4.46687 7.99338 4.85187 7.95401 5.24125C7.94456 5.35107 7.9595 5.46162 7.99775 5.56499C8.46588 6.76812 8.94275 7.97125 9.41963 9.17875C9.85713 10.2929 10.2946 11.41 10.7321 12.53C10.7321 12.5737 10.7934 12.6394 10.8284 12.6394C11.0909 12.6394 11.349 12.6394 11.629 12.6394C11.629 12.5781 11.5896 12.5344 11.5721 12.495C10.6067 10.2054 9.63692 7.92167 8.66275 5.64375C8.63101 5.5752 8.61457 5.50055 8.61457 5.425C8.61457 5.34945 8.63101 5.27481 8.66275 5.20625C8.829 4.82125 8.97338 4.43187 9.13088 4.04687L8.09838 4.05125ZM7.464 12.6394V5.66124H6.589V12.635L7.464 12.6394ZM13.5628 2.52438C13.0197 2.71169 12.4578 2.83931 11.8871 2.905C10.6184 3.04937 9.34963 3.14563 8.0765 3.1675C6.40916 3.21345 4.74058 3.15646 3.08026 2.99687C2.43276 2.93125 1.76775 2.82624 1.14213 2.72124C0.923377 2.68187 0.704629 2.59875 0.481504 2.53312C0.488268 2.60734 0.488268 2.68203 0.481504 2.75625C0.455254 2.90938 0.534004 2.98375 0.665254 3.02312C0.927754 3.09312 1.19025 3.17625 1.45713 3.22875C2.68292 3.44218 3.92315 3.56211 5.16713 3.5875C7.27625 3.6831 9.3896 3.61875 11.489 3.395C12.0968 3.34414 12.6979 3.23127 13.2828 3.05813C13.5715 2.96625 13.5671 2.96187 13.5671 2.66875L13.5628 2.52438ZM7.499 5.1975L7.639 4.08624H6.40525L6.54525 5.1975H7.499Z" fill="black"/>
</svg>
